<!-- LLMBrick Social Card (Docusaurus style, LLMBrick-focused text, fixed layout) -->
<svg width="1300" height="630" viewBox="0 0 1300 630" fill="none" xmlns="http://www.w3.org/2000/svg">
  <defs>
    <linearGradient id="bg-gradient" x1="0" y1="0" x2="1300" y2="630" gradientUnits="userSpaceOnUse">
      <stop stop-color="#e3f6fc"/>
      <stop offset="1" stop-color="#f8fcff"/>
    </linearGradient>
    <linearGradient id="title-gradient" x1="0" y1="0" x2="0" y2="1" gradientUnits="objectBoundingBox">
      <stop stop-color="#00b894"/>
      <stop offset="1" stop-color="#0984e3"/>
    </linearGradient>
  </defs>
  <!-- Background -->
  <rect width="1300" height="630" fill="url(#bg-gradient)"/>
  <!-- Logo (left) -->
  <g width="650" height="600" transform="scale(0.35) translate(50, 400)">
    <path d="M0 0 C1.34799475 -0.00668677 1.34799475 -0.00668677 2.72322172 -0.01350862 C4.19824033 -0.01323207 4.19824033 -0.01323207 5.70305729 -0.01294994 C6.75085914 -0.01662663 7.79866099 -0.02030332 8.87821442 -0.02409142 C12.40089341 -0.03513348 15.9235429 -0.03897304 19.44623661 -0.04278088 C21.96757444 -0.04904525 24.48891134 -0.05569202 27.01024723 -0.0626936 C34.58601593 -0.08192558 42.16177944 -0.09252378 49.73756632 -0.10142139 C53.30874712 -0.10580778 56.87992644 -0.11117379 60.45110607 -0.11641026 C72.32969289 -0.13342338 84.20827879 -0.14791526 96.08687592 -0.155159 C99.16857689 -0.15706878 102.25027785 -0.15898912 105.3319788 -0.16094494 C106.48083865 -0.16167055 106.48083865 -0.16167055 107.6529078 -0.16241082 C120.04671522 -0.17070253 132.44042587 -0.19602451 144.83419108 -0.22852562 C157.57075218 -0.26165206 170.30726421 -0.27961291 183.0438686 -0.28280324 C190.18999422 -0.28496349 197.33597883 -0.29364052 204.48206234 -0.31926441 C211.21013778 -0.34333413 217.93791646 -0.34676215 224.66604137 -0.33650303 C227.12941805 -0.33600849 229.59280735 -0.34230445 232.05614567 -0.35605907 C248.41423109 -0.44225337 262.07737781 -0.30830388 275.51484013 10.13422108 C276.11683231 10.5389867 276.7188245 10.94375233 277.33905888 11.36078358 C281.61331343 14.49203523 284.18905572 18.47584783 286.82734013 23.00922108 C287.33406254 23.87450428 287.33406254 23.87450428 287.85102177 24.75726795 C291.63877117 31.60608641 292.8164371 38.42454179 292.78226566 46.1906786 C292.78679678 46.9608386 292.79132789 47.73099861 292.79599631 48.52449679 C292.80857168 51.08359495 292.80702441 53.64247842 292.80536747 56.20160389 C292.81135704 58.04536173 292.81816357 59.88911707 292.82572269 61.73286915 C292.84334691 66.72685702 292.84807659 71.72077629 292.84935427 76.71479225 C292.85077853 79.83932738 292.85505336 82.96384522 292.8603487 86.08837605 C292.87883763 97.00161815 292.8870208 107.91481149 292.88544559 118.82806873 C292.88424473 128.98004716 292.90533925 139.13181281 292.93693292 149.28373742 C292.96313704 158.01693282 292.97381115 166.75005891 292.97253478 175.48329329 C292.97202633 180.6915894 292.97764436 185.89969633 292.99889088 191.10795307 C293.01834284 196.00988804 293.01835033 200.9114547 293.00385761 205.81340313 C293.00177698 207.60476378 293.00642556 209.3961479 293.01857853 211.18746853 C293.11206817 225.93141011 291.1633934 237.37691183 281.51484013 249.13422108 C280.65439091 250.19963123 280.65439091 250.19963123 279.77655888 251.28656483 C272.14690884 259.7984442 260.07193377 265.64796885 248.63923931 266.29762554 C245.16979957 266.34212974 241.70623697 266.32109642 238.23676395 266.27850819 C236.21578713 266.26680533 234.19481012 266.25512029 232.17382944 266.24410355 C230.01401828 266.23088432 227.85427885 266.21312501 225.69450665 266.19465923 C221.17462491 266.15819073 216.65489419 266.14682455 212.13488102 266.14119434 C211.36937123 266.14012981 210.60386143 266.13906527 209.81515437 266.13796848 C208.25043145 266.13582934 206.68570845 266.13374233 205.12098539 266.13170636 C194.60989322 266.11689588 184.09948736 266.08533415 173.58881474 265.98700428 C166.48235053 265.92071304 159.37690923 265.89392873 152.27014273 265.91155535 C148.51802211 265.91929306 144.76834322 265.90752853 141.0166502 265.84712505 C122.44594262 264.75518739 122.44594262 264.75518739 106.41986942 272.43719959 C104.74254503 274.2989375 103.10302732 276.19588505 101.51484013 278.13422108 C99.73564046 279.63300088 97.92706769 281.09840561 96.07734013 282.50922108 C90.38641064 287.1351813 85.06895014 292.12519498 79.72187138 297.13812733 C75.57470826 301.02452276 71.30571633 304.75031054 66.98456669 308.44134998 C65.20263863 309.96356177 63.42112211 311.48625331 61.63984013 313.00922108 C60.73201786 313.78483387 60.73201786 313.78483387 59.80585575 314.57611561 C55.35552964 318.38811453 50.9868619 322.28193234 46.64765263 326.22015858 C43.99470194 328.60101176 41.27665986 330.88115761 38.51484013 333.13422108 C40.57260666 335.19198762 41.62359328 335.68511179 44.30146122 336.62372303 C45.08748219 336.90246265 45.87350315 337.18120228 46.68334293 337.46838856 C47.97278561 337.91592487 47.97278561 337.91592487 49.28827763 338.37250233 C50.1859737 338.68930958 51.08366978 339.00611683 52.00856876 339.3325243 C53.95016084 340.01705484 55.89266948 340.6989899 57.8359766 341.37863636 C61.96135061 342.82148045 66.08237627 344.27655134 70.20366764 345.73100758 C72.30115048 346.4711149 74.39885933 347.21058204 76.49678898 347.94942188 C86.2971962 351.40243576 96.07126993 354.92580095 105.83817387 358.47226429 C114.79859956 361.72518665 123.77212646 364.93637857 132.76484013 368.09906483 C135.63923043 369.11335096 138.51341621 370.12821472 141.38755131 371.14322376 C143.24033509 371.7955298 145.09413386 372.4449612 146.94901371 373.09128284 C171.73658975 381.72949325 171.73658975 381.72949325 177.51484013 390.13422108 C179.36274032 393.96560199 179.77303756 397.037852 179.80004215 401.27530384 C179.81895512 403.12894047 179.81895512 403.12894047 179.83825016 405.0200243 C179.84221001 406.38214534 179.84597229 407.74426697 179.84955692 409.10638905 C179.86049941 410.54762888 179.87229094 411.98886248 179.88486576 413.430089 C179.91645322 417.34441512 179.93571845 421.25871448 179.95248866 425.1731286 C179.97191287 429.291722 180.00162995 433.41024266 180.02993107 437.52878284 C180.07602354 444.46412978 180.1143849 451.39948617 180.14789677 458.33490467 C180.18642381 466.29453296 180.23568203 474.25403536 180.29122704 482.21356189 C180.34482133 489.9154904 180.39175352 497.61744523 180.43541241 505.31943607 C180.4538863 508.57159504 180.47435301 511.82373173 180.49650478 515.07586765 C180.68809295 543.99094764 180.68809295 543.99094764 180.26801395 558.31439686 C180.25373954 559.21092913 180.23946512 560.1074614 180.22475815 561.03116131 C179.96039589 567.7686142 178.12808747 573.07313043 173.71698856 578.24017811 C168.68622608 582.40848608 163.4429764 585.78864498 157.76484013 589.00922108 C155.80813974 590.14296319 153.85246022 591.27846851 151.89765263 592.41547108 C150.86414677 593.01488514 149.83064091 593.6142992 148.76581669 594.23187733 C143.01909704 597.59463187 137.32858338 601.04966028 131.63984013 604.50922108 C131.04906681 604.8682552 130.4582935 605.22728931 129.84961796 605.59720325 C113.8930141 615.3003673 98.07136968 625.21508754 82.32734013 635.25922108 C67.69971823 644.59040962 52.95676767 653.72085453 38.05146122 662.60199451 C32.74422801 665.7714612 27.48759487 669.0128944 22.25092411 672.29755116 C18.02470478 674.94143656 13.77771668 677.5499041 9.51484013 680.13422108 C8.57873905 680.70438953 8.57873905 680.70438953 7.62372684 681.28607655 C0.28391171 685.66942869 -5.95537662 687.84017773 -14.48515987 686.13422108 C-26.4937072 682.52994869 -37.85242222 676.6303623 -49.174613 671.32806873 C-64.77927878 664.06145158 -80.64713708 657.38538907 -96.46156979 650.59180164 C-104.61359966 647.08661434 -112.73904405 643.52277801 -120.86015987 639.94672108 C-131.7891912 635.13488623 -142.77687407 630.47584049 -153.7940588 625.86963367 C-177.19546506 616.07469123 -177.19546506 616.07469123 -185.98515987 612.07172108 C-186.69519161 611.76258778 -187.40522335 611.45345448 -188.1367712 611.1349535 C-194.18226972 608.2995349 -198.04463883 604.20458879 -200.85234737 598.22015858 C-201.64772047 594.34148728 -201.7029112 590.70471973 -201.61015987 586.75922108 C-201.60113644 586.02316639 -201.592113 585.2871117 -201.58281612 584.52875233 C-201.55946132 582.73043227 -201.52359823 580.93228196 -201.48515987 579.13422108 C-212.12622904 584.87589219 -222.74152918 590.64255445 -233.17265987 596.75922108 C-239.683595 600.56704793 -246.25666747 604.22930266 -252.92265987 607.75922108 C-253.72212032 608.18541737 -254.52158077 608.61161366 -255.3452673 609.05072498 C-256.09139278 609.44179432 -256.83751827 609.83286366 -257.60625362 610.23578358 C-258.26037228 610.57947987 -258.91449093 610.92317616 -259.58843136 611.27728748 C-266.90052467 614.58085905 -275.62771038 614.07737901 -283.05937862 611.46625233 C-285.106413 610.64927296 -287.14365474 609.80750166 -289.17265987 608.94672108 C-290.91821163 608.23443348 -290.91821163 608.23443348 -292.69902706 607.50775623 C-296.97707502 605.75404796 -301.23103747 603.94503461 -305.48515987 602.13422108 C-306.7945956 601.57846394 -306.7945956 601.57846394 -308.13048458 601.01147938 C-320.52429693 595.7508471 -332.895578 590.43843557 -345.25940609 585.1077776 C-355.1572754 580.84133984 -365.06669442 576.60253928 -374.98515987 572.38422108 C-376.17972805 571.87571613 -376.17972805 571.87571613 -377.39842892 571.35693836 C-386.82125951 567.34810359 -396.26252199 563.38667394 -405.72734737 559.47797108 C-406.66197811 559.09179615 -407.59660885 558.70562122 -408.55956173 558.30774403 C-413.05895543 556.44980296 -417.56033848 554.59693626 -422.065238 552.75238514 C-450.3729999 541.12516897 -450.3729999 541.12516897 -454.65348148 531.04282284 C-456.43585107 524.80939969 -456.02921817 518.24994143 -455.98686886 511.81757069 C-455.99065698 510.17406725 -455.99616108 508.53056702 -456.00324154 506.88707447 C-456.01714803 502.44492612 -456.00606084 498.00316718 -455.98953032 493.56104064 C-455.97563059 488.90163927 -455.98214541 484.24225938 -455.98566341 479.58284473 C-455.98836138 471.76095814 -455.97492461 463.93922536 -455.95171261 456.11737537 C-455.92509618 447.08604576 -455.92336028 438.05497309 -455.93510097 429.02361768 C-455.94589514 420.31883498 -455.93967942 411.61414483 -455.92554569 402.90936947 C-455.91980104 399.21218701 -455.91985656 395.51507263 -455.92461109 391.81788921 C-455.92939765 387.46177663 -455.91920994 383.10594399 -455.89765644 378.74988461 C-455.89211156 377.15520261 -455.89160206 375.56049359 -455.89660931 373.96580982 C-455.94462755 356.47449709 -455.94462755 356.47449709 -450.792243 350.01027393 C-445.69612099 345.81624538 -440.44025802 342.68607795 -434.52812862 339.77093983 C-433.58568798 339.29405216 -432.64324734 338.8171645 -431.67224789 338.32582569 C-428.67781364 336.81337331 -425.67567488 335.31705153 -422.67265987 333.82172108 C-419.7228843 332.33967423 -416.77480359 330.85429422 -413.82680416 329.36871815 C-411.87535043 328.38568884 -409.92321981 327.40400213 -407.97041988 326.42364979 C-401.05410784 322.9464535 -394.19023707 319.37963889 -387.34903622 315.75728321 C-381.99120508 312.9213484 -376.61414432 310.12610982 -371.21953487 307.36078358 C-370.47351513 306.97825932 -369.72749538 306.59573505 -368.95886898 306.20161915 C-365.9476839 304.65869736 -362.93567451 303.1173934 -359.92314816 301.57709217 C-357.66706107 300.42304805 -355.41199976 299.26701854 -353.15703487 298.11078358 C-352.48718563 297.76907124 -351.81733639 297.42735889 -351.12718868 297.07529163 C-350.16888149 296.58359989 -350.16888149 296.58359989 -349.19121456 296.08197498 C-348.64229549 295.80125141 -348.09337643 295.52052784 -347.52782345 295.23129749 C-346.85374447 294.86926228 -346.17966549 294.50722706 -345.48515987 294.13422108 C-344.27102413 293.67112537 -343.05688839 293.20802967 -341.80596066 292.73090076 C-339.35896834 291.30435641 -338.61893437 290.61221254 -337.84653759 287.85235119 C-337.59943259 284.76158037 -337.58898805 281.73994566 -337.64629269 278.63959217 C-337.64033581 277.46513538 -337.63437893 276.2906786 -337.62824154 275.08063221 C-337.61820194 271.8605859 -337.63892006 268.64244465 -337.67226791 265.42261171 C-337.69911425 262.04530996 -337.68398949 258.66821891 -337.67259884 255.29086781 C-337.65682268 248.88532382 -337.67405594 242.48035852 -337.70526958 236.07488692 C-337.7604472 224.62811127 -337.76905961 213.18132835 -337.75176597 201.73444521 C-337.74637701 197.07787673 -337.76884397 192.42192212 -337.79796505 187.76541615 C-337.80141131 185.31201728 -337.80427002 182.85861749 -337.80644894 180.40521717 C-337.81888134 179.30666401 -337.83131374 178.20811085 -337.84412289 177.0762682 C-337.82494503 168.88504976 -337.32627246 160.59621456 -331.29765987 154.50922108 C-327.5496298 151.57729432 -323.44576329 149.49330802 -319.18828487 147.41156483 C-318.48760387 147.06523502 -317.78692287 146.71890522 -317.06500912 146.36208057 C-314.87409071 145.28123361 -312.68013847 144.20679573 -310.48515987 143.13422108 C-309.81189663 142.80458363 -309.13863338 142.47494617 -308.44496822 142.13531971 C-303.77689002 139.85163903 -299.10093416 137.58442575 -294.42265987 135.32172108 C-293.70705898 134.97528553 -292.99145809 134.62884998 -292.25417233 134.27191639 C-277.0713211 126.92164019 -261.87613289 119.59923339 -246.60625362 112.43109608 C-245.90970165 112.1040871 -245.21314968 111.77707813 -244.49549007 111.4401598 C-238.61732269 108.68078867 -238.61732269 108.68078867 -235.79878902 107.35852528 C-225.23928483 102.40266313 -214.72370366 97.36337508 -204.23515987 92.25922108 C-159.79411553 70.63868525 -159.79411553 70.63868525 -144.56328487 75.57953358 C-138.79136701 77.65451619 -133.12664665 79.99585928 -127.45567989 82.32971668 C-123.79756429 83.82321588 -120.12276941 85.27487087 -116.45000362 86.73187733 C-106.11676864 90.83715819 -95.8006185 94.98452004 -85.48515987 99.13422108 C-78.9591099 101.75910558 -72.43221532 104.38186136 -65.90361691 107.0004015 C-63.2775946 108.05468458 -60.6528408 109.11208181 -58.02812862 110.16962147 C-56.42532533 110.81292198 -54.82246389 111.45607764 -53.21953487 112.09906483 C-52.49224178 112.39308186 -51.76494869 112.68709888 -51.01561642 112.99002552 C-47.86306656 114.25124361 -44.78962572 115.36090951 -41.48515987 116.13422108 C-41.49515263 114.78357563 -41.49515263 114.78357563 -41.50534725 113.40564442 C-41.5657342 104.87404762 -41.61127353 96.34252375 -41.64059639 87.81076145 C-41.6561789 83.4256492 -41.67727972 79.04071517 -41.71147823 74.65570545 C-41.74433871 70.41519159 -41.76206848 66.17484797 -41.7697916 61.9342165 C-41.77528765 60.32527713 -41.78601848 58.71634591 -41.80235004 57.10748005 C-41.95612675 41.31456968 -39.34047994 29.12340174 -30.29765987 15.94672108 C-22.29269773 7.94175894 -11.73738011 0.02708173 0 0 Z " fill="#102E40" transform="translate(480.4851598739624,60.86577892303467)"/>
    <path d="M0 0 C0.99939564 -0.00538554 1.99879129 -0.01077108 3.02847165 -0.01631981 C6.36930152 -0.0305999 9.7097352 -0.02349533 13.05058289 -0.01637268 C15.44915587 -0.02207626 17.84772613 -0.02904047 20.24629211 -0.03717041 C26.08077258 -0.05325612 31.91512933 -0.05520171 37.74962727 -0.04995751 C42.49433239 -0.04591083 47.23900573 -0.04736527 51.98370934 -0.05270576 C52.65983718 -0.05345419 53.33596503 -0.05420261 54.03258159 -0.05497371 C55.40629855 -0.05650525 56.7800155 -0.05804359 58.15373244 -0.05958868 C71.02876754 -0.07330827 83.90374183 -0.06788028 96.77877554 -0.05640347 C108.54394682 -0.04647583 120.30896073 -0.05940453 132.07410774 -0.08333766 C144.16778671 -0.10775281 156.26139246 -0.11733034 168.35509557 -0.11068493 C175.13944937 -0.10719753 181.92368224 -0.10939279 188.70801735 -0.12693596 C195.08977732 -0.14241475 201.47123723 -0.13843869 207.85298538 -0.11963081 C210.1918361 -0.11594735 212.53070908 -0.11904625 214.86953926 -0.1295166 C218.06929489 -0.14274454 221.26805984 -0.131162 224.46777344 -0.11352539 C225.38715252 -0.1231304 226.3065316 -0.1327354 227.25377065 -0.14263147 C234.66982497 -0.05887868 241.57750273 1.63299795 247.39701843 6.4228363 C248.18399109 7.42637146 248.18399109 7.42637146 248.98686218 8.45018005 C249.53471375 9.12178162 250.08256531 9.79338318 250.64701843 10.4853363 C253.24556039 14.3553361 253.07505133 18.1273613 253.07826233 22.60403442 C253.08264458 23.3441597 253.08702684 24.08428498 253.09154189 24.8468383 C253.10492695 27.33400621 253.1111081 29.8211387 253.11723328 32.30833435 C253.12513451 34.08887899 253.13340347 35.86942203 253.14201355 37.64996338 C253.16823243 43.5039263 253.18354162 49.35789637 253.19779968 55.2118988 C253.20315952 57.2272422 253.20853703 59.24258555 253.21393204 61.25792885 C253.23556106 69.64165852 253.25429747 78.02538626 253.26555443 86.40913677 C253.2817916 98.4228941 253.31496359 110.43632791 253.37195528 122.44996327 C253.41066343 130.89763732 253.4301882 139.34522486 253.43547499 147.79298526 C253.43912739 152.83809635 253.45113689 157.88286237 253.48357773 162.92787743 C253.51367346 167.67628981 253.5199648 172.42414859 253.50819397 177.17263603 C253.50797336 178.9124737 253.51626823 180.65233716 253.53384781 182.39208603 C253.68541479 198.25948396 253.68541479 198.25948396 249.27836037 204.02335835 C242.25448283 211.10078926 234.54467269 211.6130705 225.10856628 211.6555481 C223.81535461 211.6514241 222.52214294 211.64730011 221.18974304 211.64305115 C219.79944657 211.64580431 218.40915167 211.64948619 217.01885986 211.65402222 C214.03582569 211.6621058 211.05286635 211.66430991 208.06982231 211.66207504 C203.35025834 211.65923248 198.6308429 211.67362793 193.91131592 211.6910553 C180.4947073 211.7379958 167.07810988 211.76202827 153.66142273 211.76853943 C146.24316139 211.77229139 138.82506925 211.79032738 131.40688044 211.82363379 C126.71766308 211.84382825 122.0288826 211.84622844 117.33963954 211.83535361 C114.42097303 211.83274362 111.50256024 211.84676355 108.58395958 211.86543465 C106.59085724 211.87327876 104.59770762 211.86133046 102.60462952 211.84875488 C93.96767314 211.9156342 93.96767314 211.9156342 86.92436218 216.38768005 C86.05932068 217.10274719 86.05932068 217.10274719 85.17680359 217.83226013 C84.71451355 218.26949402 84.25222351 218.70672791 83.77592468 219.1572113 C83.25014832 219.64947205 82.72437195 220.14173279 82.18266296 220.64891052 C81.64367371 221.16082947 81.10468445 221.67274841 80.54936218 222.20018005 C79.39385353 223.28300296 78.23760771 224.36503977 77.08061218 225.4462738 C76.53147156 225.96044861 75.98233093 226.47462341 75.41654968 227.00437927 C73.66141611 228.63143863 71.86613029 230.20488108 70.04936218 231.76268005 C66.07363034 235.19703565 62.25624096 238.79491499 58.42436218 242.38768005 C53.33709912 247.15285489 48.22839129 251.8633721 42.92436218 256.38768005 C41.82130242 257.33276479 40.7184593 258.27810243 39.61576843 259.22361755 C37.7733065 260.80336354 35.93037745 262.38253849 34.085495 263.9594574 C30.11249637 267.35733156 26.17446326 270.79057461 22.27983093 274.27830505 C20.92436218 275.38768005 20.92436218 275.38768005 19.92436218 275.38768005 C19.91889374 274.3110611 19.91889374 274.3110611 19.91331482 273.21269226 C19.87542756 266.44426071 19.81856671 259.67622498 19.74045944 252.9081459 C19.70097167 249.42864869 19.66879008 245.949405 19.65336609 242.4697113 C19.63530671 238.46799629 19.58536237 234.46722882 19.53373718 230.46580505 C19.53250854 229.217771 19.53127991 227.96973694 19.53001404 226.68388367 C19.51029541 225.52298218 19.49057678 224.36208069 19.47026062 223.16600037 C19.46137817 222.14451904 19.45249573 221.12303772 19.44334412 220.07060242 C18.79069302 216.69666568 17.55404479 215.52745886 14.92436218 213.38768005 C12.51185915 212.18142854 10.92660957 212.24722458 8.23295593 212.2118988 C7.28742859 212.18805115 6.34190125 212.16420349 5.36772156 212.13963318 C3.39136633 212.09725519 1.41474435 212.0656899 -0.56196594 212.04588318 C-9.88801261 211.77510667 -17.4870595 209.13312928 -24.07563782 202.38768005 C-26.69324177 197.29565026 -27.45158606 193.56069937 -27.45658875 187.7527771 C-27.46126872 187.0159901 -27.46594869 186.27920309 -27.47077048 185.52008921 C-27.48267111 183.0681325 -27.47328295 180.61673984 -27.46382141 178.16477966 C-27.46788928 176.40010249 -27.47323237 174.63542787 -27.47975159 172.87075806 C-27.49340438 168.08986667 -27.4881352 163.30916995 -27.47861433 158.52827525 C-27.47100839 153.52092011 -27.47806583 148.5135814 -27.48277283 143.50622559 C-27.48822714 135.09908563 -27.48104672 126.69202479 -27.4667511 118.28489685 C-27.45041991 108.56852886 -27.45571781 98.85234969 -27.47223032 89.13598627 C-27.48584805 80.78845795 -27.48776359 72.44098644 -27.47991431 64.09345061 C-27.47524007 59.11005881 -27.47460624 54.12675575 -27.48452377 49.14336967 C-27.49319551 44.4590007 -27.48716771 39.77487502 -27.469841 35.0905323 C-27.4658775 33.37245208 -27.46700787 31.65435134 -27.473629 29.9362793 C-27.48183999 27.58911044 -27.47152897 25.24271885 -27.45658875 22.89559937 C-27.45545767 21.58283996 -27.45432659 20.27008055 -27.45316124 18.91754055 C-26.88607342 13.61524465 -24.92514907 9.61963219 -20.82563782 6.20018005 C-20.28423157 5.73225037 -19.74282532 5.26432068 -19.18501282 4.7822113 C-12.79833068 0.55990478 -7.48926826 -0.04860408 0 0 Z " fill="#2D93D3" transform="translate(493.0756378173828,87.61231994628906)"/>
    <path d="M0 0 C4.06990828 1.55625591 8.13856445 3.11576123 12.20703125 4.67578125 C13.340802 5.1092688 14.47457275 5.54275635 15.6427002 5.98937988 C23.36758779 8.95372476 31.04093839 12.02685577 38.6875 15.1875 C49.54095193 19.65297319 60.47116169 23.88403389 71.4375 28.0625 C88.13041528 34.42445099 104.68051558 41.10676995 121.19311523 47.92211914 C122.95424257 48.64865298 124.71539103 49.37513565 126.4765625 50.1015625 C127.3094429 50.44551559 128.1423233 50.78946869 129.0004425 51.1438446 C134.88853215 53.56684094 140.80840303 55.87902067 146.77490234 58.10302734 C149 59 149 59 150 60 C150.09660952 61.92361627 150.12187168 63.85083066 150.12025452 65.77687073 C150.12231651 67.65949615 150.12231651 67.65949615 150.12442017 69.58015442 C150.12088055 70.98385644 150.11724574 72.38755822 150.11352539 73.79125977 C150.11324353 75.25936888 150.11340124 76.72747813 150.1139679 78.19558716 C150.1142559 82.19334657 150.10835874 86.19107624 150.10139394 90.18882871 C150.09516085 94.36220733 150.09455664 98.53558656 150.09336853 102.70896912 C150.09025508 110.61732792 150.08204151 118.52567297 150.07201904 126.4340257 C150.06085832 135.43508494 150.05534756 144.43614482 150.05032361 153.43720925 C150.03985891 171.95814731 150.0222592 190.47907255 150 209 C146.0384724 207.41883411 142.07742459 205.83646962 138.11645508 204.25390625 C137.00671577 203.81099243 135.89697647 203.36807861 134.7536087 202.91174316 C125.84182224 199.35009896 116.96704326 195.7058812 108.11004639 192.01046753 C103.74844468 190.19120127 99.38405118 188.37865818 95.01953125 186.56640625 C93.66492798 186.0039193 93.66492798 186.0039193 92.28295898 185.43006897 C82.16119904 181.2311138 72.01909553 177.08213758 61.875 172.9375 C60.04996261 172.19149946 58.22493004 171.44548713 56.39990234 170.69946289 C49.02897472 167.68696208 41.65738902 164.67607783 34.28466797 161.66796875 C29.66540593 159.78315041 25.04713561 157.89592056 20.42950439 156.0071106 C18.69466194 155.29805337 16.95943633 154.58993282 15.22381592 153.88278198 C12.84228303 152.91241298 10.46201667 151.9390007 8.08203125 150.96484375 C7.37392807 150.67722168 6.66582489 150.38959961 5.93626404 150.09326172 C1.11399134 148.11399134 1.11399134 148.11399134 0 147 C-0.0965683 145.10171764 -0.12187216 143.19979337 -0.12025452 141.29905701 C-0.12162918 140.0608017 -0.12300385 138.82254639 -0.12442017 137.54676819 C-0.12088056 136.16195655 -0.11724574 134.77714515 -0.11352539 133.39233398 C-0.11324352 131.94392906 -0.11340124 130.49552399 -0.1139679 129.04711914 C-0.11425589 125.10307686 -0.1083588 121.15906473 -0.10139394 117.21502948 C-0.09516078 113.09770531 -0.09455663 108.98038052 -0.09336853 104.86305237 C-0.0902551 97.06094138 -0.08204156 89.25884433 -0.07201904 81.45673949 C-0.06085826 72.57659696 -0.05534754 63.69645378 -0.05032361 54.81630599 C-0.03985896 36.54419608 -0.02225929 18.27209916 0 0 Z " fill="#FEBD3A" transform="translate(171,242)"/>
    <path d="M0 0 C3.72689113 0.59197345 7.09138595 1.25868829 10.60791016 2.63549805 C11.47373718 2.97119812 12.33956421 3.30689819 13.23162842 3.652771 C14.62130829 4.20170013 14.62130829 4.20170013 16.0390625 4.76171875 C17.50995331 5.33469696 17.50995331 5.33469696 19.01055908 5.91925049 C22.21751254 7.16993146 25.42123206 8.42868398 28.625 9.6875 C30.86583157 10.56313589 33.10688187 11.43821224 35.34814453 12.31274414 C39.83540223 14.06444235 44.32151072 15.81903295 48.80664062 17.57617188 C54.01857327 19.6173168 59.23409554 21.64895256 64.453125 23.671875 C82.36022061 30.61419763 100.24457594 37.61429152 118.125 44.625 C119.24275818 45.06319061 120.36051636 45.50138123 121.512146 45.95285034 C124.71921078 47.2103064 127.92605703 48.46831787 131.1328125 49.7265625 C132.08238831 50.09891525 133.03196411 50.47126801 134.01031494 50.85490417 C134.91586121 51.21038834 135.82140747 51.5658725 136.75439453 51.93212891 C137.52961456 52.23631744 138.30483459 52.54050598 139.10354614 52.85391235 C143.4073012 54.55685007 147.70261663 56.28104665 152 58 C152 105.52 152 153.04 152 202 C148.2993404 201.25986808 145.6955588 200.58338923 142.33227539 199.14013672 C141.42373306 198.7530806 140.51519073 198.36602448 139.57911682 197.96723938 C138.59523483 197.54234726 137.61135284 197.11745514 136.59765625 196.6796875 C135.03077309 196.0099012 135.03077309 196.0099012 133.43223572 195.32658386 C129.97377125 193.84708444 126.51818915 192.36096879 123.0625 190.875 C120.63628731 189.83599422 118.20985153 188.79750924 115.78320312 187.75952148 C111.36551414 185.86957587 106.9484842 183.97810604 102.5323391 182.08455563 C91.16124057 177.20895927 79.78004988 172.35710037 68.39703369 167.50939941 C65.01553917 166.0691186 61.63446041 164.62786512 58.25341797 163.18652344 C47.91161668 158.77974854 37.56435807 154.3867893 27.19921875 150.03515625 C26.29100372 149.65373978 25.3827887 149.2723233 24.447052 148.87934875 C20.24959058 147.11740602 16.05074712 145.35887167 11.84960938 143.60571289 C10.40363101 143.00019816 8.95766652 142.39465029 7.51171875 141.7890625 C6.85733322 141.51735733 6.20294769 141.24565216 5.5287323 140.9657135 C1.11311677 139.11311677 1.11311677 139.11311677 0 138 C-0.09636838 136.21572813 -0.12187453 134.42760347 -0.12025452 132.64073181 C-0.12162918 131.47820389 -0.12300385 130.31567596 -0.12442017 129.11791992 C-0.12082489 127.83111328 -0.11722961 126.54430664 -0.11352539 125.21850586 C-0.11324352 123.85876976 -0.11340125 122.4990335 -0.1139679 121.13929749 C-0.11425587 117.43698222 -0.10835912 113.73469908 -0.10139394 110.03239131 C-0.09516043 106.16731219 -0.0945566 102.30223242 -0.09336853 98.43714905 C-0.09025521 91.11315318 -0.0820418 83.78917216 -0.07201904 76.46518284 C-0.06085794 68.12916552 -0.05534746 59.79314751 -0.05032361 51.45712459 C-0.03985919 34.30474112 -0.02225973 17.15237213 0 0 Z " fill="#FEBD3A" transform="translate(306,509)"/>
    <path d="M0 0 C0.21030434 18.01951066 0.36897869 36.03870259 0.46630955 54.05917549 C0.51270486 62.42658654 0.57594771 70.79323483 0.67895508 79.16015625 C0.76870133 86.45340543 0.82673297 93.74610224 0.84679645 101.03988826 C0.85852426 104.90174996 0.88605025 108.76203158 0.95157051 112.62338638 C1.01277644 116.26002877 1.03148434 119.89444474 1.01796913 123.53155327 C1.0216167 125.49877748 1.06999657 127.46576025 1.11978149 129.43235779 C1.03082834 137.90071997 1.03082834 137.90071997 -1.9588623 141.08893967 C-4.24867536 142.63710367 -6.49383498 143.84368499 -9 145 C-10.06492676 145.66644531 -11.12985352 146.33289063 -12.22705078 147.01953125 C-13.20657715 147.61121094 -14.18610352 148.20289063 -15.1953125 148.8125 C-16.86883789 149.82570313 -16.86883789 149.82570313 -18.57617188 150.859375 C-19.75910752 151.57292838 -20.94205041 152.28646975 -22.125 153 C-23.37318337 153.75498271 -24.62122803 154.51019479 -25.86914062 155.265625 C-28.38922727 156.79106229 -30.90978784 158.31571169 -33.43066406 159.83984375 C-38.46045752 162.8822554 -43.48033997 165.94090763 -48.5 169 C-57.59532921 174.53948936 -66.69742779 180.06778011 -75.80126953 185.59326172 C-83.7041981 190.39001069 -91.60415474 195.19159705 -99.5 200 C-103.33316202 202.33361484 -107.16655009 204.6668581 -111 207 C-111.57975586 207.35292114 -112.15951172 207.70584229 -112.75683594 208.06945801 C-116.54659897 210.37636842 -120.337013 212.6822038 -124.12817383 214.98681641 C-125.35998469 215.73583196 -126.59159822 216.48517216 -127.82299805 217.23486328 C-129.5481266 218.28506521 -131.27405124 219.33395909 -133 220.3828125 C-133.99 220.98496582 -134.98 221.58711914 -136 222.20751953 C-139.30873035 224.18446437 -142.65139023 226.09144915 -146 228 C-146.30394601 209.36338459 -146.53305075 190.72727327 -146.67355824 172.08869171 C-146.7405393 163.43393512 -146.83181611 154.78072004 -146.98071289 146.12695312 C-147.11046169 138.58244272 -147.19419509 131.03904859 -147.22315043 123.4934535 C-147.24007402 119.49891393 -147.27970202 115.50756701 -147.37449074 111.51405334 C-147.46309516 107.75041061 -147.48989059 103.99125596 -147.47039986 100.22666931 C-147.47565378 98.19512451 -147.54545108 96.16406399 -147.61746216 94.13378906 C-147.56202855 90.34124934 -147.37568517 87.5396566 -146 84 C-142.02495623 80.39191988 -137.85892774 78.29668364 -133 76 C-130.97555718 74.83908644 -128.95946591 73.66331964 -126.95703125 72.46484375 C-124.90992489 71.28719929 -122.86171227 70.11147614 -120.8125 68.9375 C-119.10852945 67.95741839 -117.40456022 66.97733446 -115.70066833 65.99711609 C-112.80134051 64.32985133 -109.90057927 62.66508663 -107 61 C-93.82560871 53.43547563 -80.67882271 45.83366888 -67.625 38.0625 C-57.25604476 31.89082457 -46.81869569 25.85474242 -36.32714844 19.89477539 C-30.52069152 16.59326566 -24.72938644 13.27011134 -18.97265625 9.8828125 C-17.30529419 8.90272217 -17.30529419 8.90272217 -15.60424805 7.90283203 C-13.49540504 6.66019784 -11.38869451 5.41393555 -9.28442383 4.16357422 C-8.35267334 3.61459473 -7.42092285 3.06561523 -6.4609375 2.5 C-5.64415527 2.0153125 -4.82737305 1.530625 -3.98583984 1.03125 C-2 0 -2 0 0 0 Z " fill="#F38F26" transform="translate(632,481)"/>
    <path d="M0 0 C5.15594252 1.71864751 10.1288475 3.37629829 15.140625 5.390625 C16.27314697 5.84453613 17.40566895 6.29844727 18.57250977 6.76611328 C19.78608154 7.2557959 20.99965332 7.74547852 22.25 8.25 C23.56886032 8.77995621 24.88779138 9.30973637 26.20678711 9.83935547 C37.10007436 14.21765122 47.97652082 18.63766069 58.85375977 23.05563354 C79.53554081 31.45441059 100.26995227 39.7212505 121 48 C129.25 51.3 137.5 54.6 146 58 C146 105.19 146 152.38 146 201 C127.65076916 194.11903843 127.65076916 194.11903843 120.515625 191.00390625 C119.29908485 190.47893555 119.29908485 190.47893555 118.05796814 189.94335938 C116.34001459 189.20182169 114.62272909 188.4587345 112.90609741 187.71414185 C108.27595188 185.70658395 103.6399011 183.71275496 99.00390625 181.71875 C98.0684346 181.31620499 97.13296295 180.91365997 96.16914368 180.49891663 C87.53510926 176.78908997 78.86820119 173.1615138 70.1875 169.5625 C55.99869532 163.677066 41.83731275 157.7285922 27.6875 151.75 C26.70107513 151.33332062 25.71465027 150.91664124 24.69833374 150.48733521 C21.88597507 149.29921166 19.07378813 148.11068308 16.26171875 146.921875 C15.42789673 146.56941208 14.59407471 146.21694916 13.73498535 145.85380554 C12.55652039 145.35527824 12.55652039 145.35527824 11.35424805 144.84667969 C10.67895554 144.56105164 10.00366302 144.27542358 9.3079071 143.98114014 C6.20236529 142.66090861 3.10167547 141.32928949 0 140 C0 93.8 0 47.6 0 0 Z " fill="#FEBD3A" transform="translate(53,440)"/>
    <path d="M0 0 C1.06025391 -0.01224609 2.12050781 -0.02449219 3.21289062 -0.03710938 C23.83449872 -0.07480884 23.83449872 -0.07480884 30.8125 6.1875 C36.20491541 13.48540835 34.36822866 23.6974155 33.15625 32.23828125 C28.54743029 60.60228972 15.49670852 86.98442283 -4.125 107.96875 C-5.96195749 109.94487093 -7.66561165 111.97704621 -9.375 114.0625 C-28.02806747 135.17438091 -53.31792752 146.69750566 -80.1875 153.1875 C-81.14039917 153.46013672 -81.14039917 153.46013672 -82.11254883 153.73828125 C-86.5637441 154.70194748 -91.21546109 154.37224679 -95.75 154.375 C-96.78447266 154.38724609 -97.81894531 154.39949219 -98.88476562 154.41210938 C-104.20249194 154.42209884 -108.80746427 154.09811904 -113.9609375 152.75 C-117.05770041 152.12819255 -118.53853837 151.86363189 -121.38549805 153.28442383 C-123.53454974 155.059795 -125.37765833 156.9354825 -127.25 159 C-128.6298164 160.40272938 -130.0100236 161.80507447 -131.390625 163.20703125 C-132.04353516 163.89361816 -132.69644531 164.58020508 -133.36914062 165.28759766 C-140.59430484 172.83676897 -149.91296688 182.44435322 -160.625 184.3125 C-164.33588167 184.18229363 -165.65029089 183.83042616 -168.1875 181.1875 C-167.82324288 175.38124153 -166.16077022 172.18281702 -162.3125 168 C-161.82217285 167.44465576 -161.3318457 166.88931152 -160.82666016 166.31713867 C-159.29579122 164.59252906 -157.74466491 162.88837292 -156.1875 161.1875 C-155.23428431 160.13549883 -154.28115655 159.08341798 -153.328125 158.03125 C-151.50506588 156.02802899 -149.67257418 154.03403913 -147.83203125 152.046875 C-145.28785543 149.29600838 -142.76251036 146.5297987 -140.25 143.75 C-139.21552734 142.60724609 -139.21552734 142.60724609 -138.16015625 141.44140625 C-137.50917969 140.69761719 -136.85820313 139.95382813 -136.1875 139.1875 C-135.42308594 138.37152344 -134.65867187 137.55554688 -133.87109375 136.71484375 C-131.9133428 134.3512395 -131.9133428 134.3512395 -132.41796875 131.74609375 C-132.67191406 130.90175781 -132.92585937 130.05742187 -133.1875 129.1875 C-135.31996064 103.77276422 -120.16470756 77.77261699 -105.1875 58.1875 C-104.47980469 57.25421875 -103.77210938 56.3209375 -103.04296875 55.359375 C-89.11341396 37.68253739 -72.1533969 23.54018728 -52.1875 13.1875 C-51.60178223 12.87973633 -51.01606445 12.57197266 -50.41259766 12.25488281 C-34.4080117 3.94205309 -18.01741235 0.01075666 0 0 Z " fill="#0A293C" transform="translate(670.1875,104.8125)"/>
    <path d="M0 0 C0.92918243 0.32970795 1.85836487 0.65941589 2.81570435 0.99911499 C5.88024351 2.08816192 8.94208795 3.18457909 12.00390625 4.28125 C14.15410381 5.0473513 16.30441482 5.81313423 18.45483398 6.57861328 C35.32595573 12.59181806 52.17236862 18.67422926 69.00610352 24.79125977 C77.77868157 27.97739614 86.55560783 31.14577712 95.3671875 34.22265625 C96.48466118 34.61390686 96.48466118 34.61390686 97.62471008 35.01306152 C101.02995937 36.20475932 104.43733457 37.38934002 107.84985352 38.56005859 C109.00155029 38.9617627 110.15324707 39.3634668 111.33984375 39.77734375 C112.33419434 40.11950928 113.32854492 40.4616748 114.35302734 40.81420898 C116.56640625 41.78125 116.56640625 41.78125 117.56640625 43.78125 C116.92952881 44.13727295 116.29265137 44.4932959 115.63647461 44.86010742 C90.41851583 58.96078669 65.28725501 73.19700007 40.28710938 87.68115234 C20.31649044 99.25109998 20.31649044 99.25109998 11.04296875 104.44921875 C9.97925049 105.04605469 8.91553223 105.64289063 7.81958008 106.2578125 C5.70728933 107.43186407 3.58734955 108.59226721 1.4597168 109.73828125 C-3.39388719 112.3744852 -7.8948463 115.02064229 -12.203125 118.48828125 C-17.54431499 122.6288195 -22.4042378 126.28819008 -29.44140625 125.40283203 C-36.32845588 123.55971649 -42.75370754 120.63761457 -49.19334412 117.62828064 C-56.57869894 114.18586245 -64.16797371 111.33280312 -71.78912354 108.46072388 C-75.09684112 107.20941156 -78.39555079 105.93519321 -81.69482422 104.66181946 C-93.71155595 100.02721287 -105.77675287 95.5242734 -117.84390259 91.02304077 C-131.79316078 85.81556035 -145.65396112 80.42482013 -159.43359375 74.78125 C-156.48347947 71.55545278 -153.58391323 69.56823278 -149.7265625 67.53125 C-148.59395996 66.92885498 -147.46135742 66.32645996 -146.29443359 65.70581055 C-145.07006794 65.06413585 -143.84561937 64.42261936 -142.62109375 63.78125 C-141.35726792 63.11233308 -140.09376227 62.44281089 -138.83056641 61.77270508 C-130.05807663 57.12717787 -121.24902499 52.55112549 -112.43798828 47.97924805 C-106.90772292 45.101174 -101.43025984 42.14902726 -95.99609375 39.09375 C-87.75402225 34.46068941 -79.41284835 30.01992977 -71.05859375 25.59375 C-70.37512878 25.231604 -69.69166382 24.86945801 -68.98748779 24.49633789 C-66.20821562 23.02380005 -63.42893248 21.55128295 -60.64953613 20.07897949 C-53.46283928 16.27025289 -46.29025433 12.43535964 -39.12109375 8.59375 C-38.00234863 7.99473877 -36.88360352 7.39572754 -35.73095703 6.77856445 C-34.66731934 6.208396 -33.60368164 5.63822754 -32.5078125 5.05078125 C-31.49122559 4.51018066 -30.47463867 3.96958008 -29.42724609 3.41259766 C-27.40167542 2.30879214 -25.39674764 1.16638199 -23.41259766 -0.01025391 C-21.97859619 -0.85015869 -21.97859619 -0.85015869 -20.515625 -1.70703125 C-19.67878174 -2.21403564 -18.84193848 -2.72104004 -17.97973633 -3.2434082 C-12.10561545 -5.49358683 -5.62607077 -2.02284739 0 0 Z " fill="#FDBD3A" transform="translate(495.43359375,416.21875)"/>
    <path d="M0 0 C0.00410889 0.88558594 0.00821777 1.77117187 0.01245117 2.68359375 C0.20234103 26.04156483 0.48466701 45.42248088 17.6796875 63.17578125 C26.40424486 70.03498712 34.94090558 70.54242346 46 73 C46 89.83 46 106.66 46 124 C37.32937205 128.95464454 28.67506987 133.8549658 19.875 138.5625 C18.77027344 139.15546875 17.66554688 139.7484375 16.52734375 140.359375 C13.60834219 141.92558843 10.68846528 143.49014987 7.76794434 145.05352783 C4.84750995 146.61698761 1.92772136 148.18165278 -0.9921875 149.74609375 C-4.5021433 151.62639225 -8.01218699 153.50652597 -11.52246094 155.38623047 C-32.99566627 166.88611286 -54.4597034 178.40484883 -75.77734375 190.19140625 C-76.70691895 190.70485596 -77.63649414 191.21830566 -78.59423828 191.74731445 C-80.37104643 192.72955391 -82.14680926 193.71368732 -83.92138672 194.69995117 C-85.09918701 195.35120972 -85.09918701 195.35120972 -86.30078125 196.015625 C-86.99341064 196.40008789 -87.68604004 196.78455078 -88.3996582 197.18066406 C-90 198 -90 198 -91 198 C-91 148.5 -91 99 -91 48 C-81.76 43.05 -72.52 38.1 -63 33 C-52.07626342 27.09676862 -41.15914546 21.18265184 -30.26220703 15.23022461 C-25.84328629 12.81681405 -21.42198637 10.40778772 -17 8 C-16.2157666 7.57219238 -15.4315332 7.14438477 -14.62353516 6.70361328 C-12.50143024 5.54789358 -10.37634842 4.39788877 -8.25 3.25 C-7.63568115 2.91444092 -7.0213623 2.57888184 -6.38842773 2.2331543 C-2.22995347 0 -2.22995347 0 0 0 Z " fill="#F38F26" transform="translate(440,253)"/>
    <path d="M0 0 C0.72976044 0.29123245 1.45952087 0.5824649 2.21139526 0.88252258 C4.62628359 1.84913011 7.0349475 2.83034241 9.44384766 3.81176758 C11.15187506 4.49895979 12.86026665 5.18524742 14.56900024 5.87068176 C19.08794881 7.68629475 23.6017549 9.5143697 28.11462402 11.34503174 C32.58198279 13.15469669 37.05413323 14.95243022 41.52587891 16.7512207 C49.34980316 19.90055428 57.16887489 23.06170332 64.98490524 26.23057365 C69.92931397 28.23506277 74.8753183 30.23552219 79.82317924 32.23147488 C82.8488258 33.45235072 85.87363378 34.67529367 88.89824295 35.89873695 C90.30360435 36.46673875 91.70929795 37.03391938 93.11533737 37.60024071 C95.02740139 38.37061727 96.93817211 39.14411473 98.84863281 39.91845703 C99.91908844 40.35084183 100.98954407 40.78322662 102.09243774 41.22871399 C104.48291016 42.26879883 104.48291016 42.26879883 105.48291016 43.26879883 C105.93212891 46.21801758 105.93212891 46.21801758 106.17041016 49.95629883 C106.33089844 51.78741211 106.33089844 51.78741211 106.49462891 53.65551758 C105.30522817 57.90337736 104.71127939 58.0924648 101.03662109 60.17431641 C100.12833054 60.69181961 99.22003998 61.20932281 98.28422546 61.74250793 C94.09200669 64.02662973 89.87340998 66.24194944 85.61181641 68.39379883 C84.69992554 68.85803757 83.78803467 69.32227631 82.84851074 69.80058289 C80.91265751 70.78569777 78.9760057 71.76924476 77.03860474 72.75131226 C72.9856919 74.80605365 68.9371203 76.86928072 64.88829041 78.93205261 C62.87535265 79.95751071 60.86222127 80.98258881 58.84889221 82.00727844 C51.06895698 85.96707134 43.29857581 89.94431369 35.54541016 93.95629883 C33.98584595 94.76079468 33.98584595 94.76079468 32.39477539 95.58154297 C27.26226163 98.24484578 22.18153617 100.97810173 17.14306641 103.81567383 C16.125271 104.38584229 15.10747559 104.95601074 14.05883789 105.54345703 C12.15356648 106.61707361 10.25532374 107.70330562 8.3659668 108.8046875 C7.1128772 109.51202026 7.1128772 109.51202026 5.83447266 110.23364258 C5.1108252 110.65250732 4.38717773 111.07137207 3.64160156 111.50292969 C-0.89434403 113.11221054 -5.16578001 110.72700399 -9.40771484 109.00317383 C-10.5750415 108.53194092 -11.74236816 108.06070801 -12.94506836 107.57519531 C-13.87647141 107.19583328 -13.87647141 107.19583328 -14.82669067 106.80880737 C-17.49430365 105.72272309 -20.16606462 104.64702414 -22.83766174 103.57078552 C-24.24786315 103.00267303 -25.65788431 102.43411293 -27.06773376 101.86512756 C-34.72426808 98.77648581 -42.39880539 95.7340601 -50.07958984 92.70629883 C-50.77243073 92.43293701 -51.46527161 92.1595752 -52.17910767 91.87792969 C-61.57362823 88.17411499 -70.99898147 84.56431609 -80.45458984 81.01879883 C-99.62800406 73.82396829 -118.55859734 66.00787713 -137.51708984 58.26879883 C-134.95422103 55.58021257 -132.58715051 54.15256164 -129.21630859 52.54614258 C-127.56260254 51.75264404 -127.56260254 51.75264404 -125.87548828 50.94311523 C-124.65191396 50.36405282 -123.4282791 49.78511832 -122.20458984 49.20629883 C-120.91691121 48.59141186 -119.62948256 47.97600115 -118.34228516 47.36010742 C-114.0718087 45.31996077 -109.79488134 43.29355262 -105.51708984 41.26879883 C-103.99772106 40.54923566 -102.47835257 39.82967185 -100.95898438 39.11010742 C-94.6130942 36.10556925 -88.26656651 33.10238549 -81.91845703 30.10253906 C-71.93543256 25.38176781 -61.97783099 20.61174459 -52.04568481 15.78485107 C-49.9825969 14.78240731 -47.9187659 13.7815091 -45.85473633 12.78100586 C-39.89602361 9.8910969 -33.94407111 6.9889042 -28.00927734 4.05004883 C-26.11611192 3.12283534 -24.22288774 2.19574178 -22.32958984 1.26879883 C-21.50450928 0.85307617 -20.67942871 0.43735352 -19.8293457 0.0090332 C-19.07274658 -0.35899414 -18.31614746 -0.72702148 -17.53662109 -1.10620117 C-16.89829346 -1.42331055 -16.25996582 -1.74041992 -15.60229492 -2.06713867 C-9.97481749 -3.85928697 -5.23791089 -2.15956759 0 0 Z " fill="#FDBD3A" transform="translate(334.51708984375,165.731201171875)"/>
    <path d="M0 0 C0.90335083 0.43203735 0.90335083 0.43203735 1.82495117 0.87280273 C2.4855957 1.18540039 3.14624023 1.49799805 3.8269043 1.82006836 C4.83720703 2.30830078 4.83720703 2.30830078 5.86791992 2.80639648 C6.56079102 3.13575195 7.25366211 3.46510742 7.9675293 3.80444336 C9.6658694 4.61261899 11.36097761 5.42758025 13.05541992 6.24389648 C9.99138335 8.79996227 7.05489271 10.89111799 3.49291992 12.68139648 C-2.11472997 15.72741229 -4.86018676 19.22878787 -6.94458008 25.24389648 C-7.2496089 27.67441088 -7.2496089 27.67441088 -7.22305298 30.21101379 C-7.23421646 31.18551483 -7.24537994 32.16001587 -7.25688171 33.16404724 C-7.2590419 34.22140579 -7.26120209 35.27876434 -7.26342773 36.36816406 C-7.27849617 38.05175018 -7.27849617 38.05175018 -7.29386902 39.76934814 C-7.32473619 43.47570285 -7.34174626 47.18198519 -7.35864258 50.88842773 C-7.37735135 53.45961633 -7.39692454 56.03079878 -7.41732788 58.60197449 C-7.46343762 64.67562006 -7.50083484 70.74926192 -7.53400075 76.82299012 C-7.57225623 83.73959792 -7.62165737 90.65611216 -7.67198491 97.57264102 C-7.77523313 111.79632223 -7.86451659 126.02006682 -7.94458008 140.24389648 C-10.47279972 141.66621269 -13.00104198 143.08848865 -15.52929688 144.51074219 C-16.59047352 145.10774303 -16.59047352 145.10774303 -17.67308807 145.7168045 C-24.03147109 149.29360207 -30.39285981 152.86499318 -36.75708008 156.43139648 C-37.78510742 157.00825195 -38.81313477 157.58510742 -39.87231445 158.17944336 C-42.89373272 159.87243009 -45.91865601 161.55897883 -48.94458008 163.24389648 C-49.98018066 163.82478027 -51.01578125 164.40566406 -52.08276367 165.00415039 C-53.07228027 165.55377441 -54.06179687 166.10339844 -55.08129883 166.66967773 C-55.96906006 167.16508057 -56.85682129 167.6604834 -57.77148438 168.17089844 C-59.94458008 169.24389648 -59.94458008 169.24389648 -61.94458008 169.24389648 C-61.94458008 122.71389648 -61.94458008 76.18389648 -61.94458008 28.24389648 C-51.51493944 22.37722362 -41.07879597 16.59028928 -30.50708008 10.99389648 C-28.57193646 9.96790845 -26.63711005 8.94133544 -24.70297241 7.91345215 C-23.46655548 7.25712951 -22.22913319 6.60269674 -20.9906311 5.95031738 C-16.86371071 3.76822986 -12.84251936 1.45058505 -8.88964844 -1.0324707 C-5.67250627 -2.22935904 -3.09831416 -1.20470546 0 0 Z " fill="#F49025" transform="translate(287.944580078125,466.756103515625)"/>
    <path d="M0 0 C0.87164795 -0.00563965 1.7432959 -0.0112793 2.64135742 -0.01708984 C8.41920922 0.0477866 13.58656536 0.89102923 19.1875 2.3125 C19.69992075 26.66597045 8.80940089 49.10486815 -3.8125 69.3125 C-4.19535156 69.99570313 -4.57820312 70.67890625 -4.97265625 71.3828125 C-6.0625 73.0625 -6.0625 73.0625 -8.8125 75.3125 C-12.5399709 75.9125319 -16.06726903 75.67038883 -19.8125 75.3125 C-21.10994141 75.19068359 -21.10994141 75.19068359 -22.43359375 75.06640625 C-24.08407023 74.89904124 -25.73385851 74.72472246 -27.3828125 74.54296875 C-31.15846589 74.18482799 -35.0396709 73.83276527 -38.8125 74.3125 C-41.04216747 76.13453581 -41.04216747 76.13453581 -41.125 78.75 C-40.74426746 81.8720068 -40.2451033 82.39094781 -37.8125 84.3125 C-34.93004072 85.46514635 -34.93004072 85.46514635 -31.75 86.375 C-26.02083333 88.10416667 -26.02083333 88.10416667 -23.8125 90.3125 C-42.56581407 108.50677218 -66.83393829 120.59602987 -93.1875 120.375 C-94.20972656 120.37048828 -95.23195313 120.36597656 -96.28515625 120.36132812 C-98.79433194 120.349603 -101.3033849 120.33319176 -103.8125 120.3125 C-103.8125 117.3125 -103.8125 117.3125 -101.25 114.421875 C-100.11250016 113.29361903 -98.96609869 112.17429021 -97.8125 111.0625 C-97.21308594 110.47476807 -96.61367188 109.88703613 -95.99609375 109.28149414 C-92.41338172 105.79115495 -88.76319474 102.40972977 -84.953125 99.16796875 C-82.09885717 96.69392273 -79.33283435 94.12979222 -76.5625 91.5625 C-76.00506104 91.04623047 -75.44762207 90.52996094 -74.87329102 89.99804688 C-73.74048041 88.94881628 -72.60774944 87.8994997 -71.47509766 86.85009766 C-68.90736688 84.475418 -66.32916124 82.11225022 -63.75 79.75 C-63.25918945 79.29971436 -62.76837891 78.84942871 -62.26269531 78.38549805 C-59.78784118 76.1160682 -57.30732218 73.85335698 -54.81640625 71.6015625 C-49.06247182 66.38609537 -43.49423433 61.03817835 -38.03344727 55.51635742 C-33.21549609 50.66508598 -28.10669259 46.2431654 -22.87890625 41.84375 C-21.85620875 40.95898263 -20.83407085 40.07356799 -19.8125 39.1875 C-18.86375 38.38054687 -17.915 37.57359375 -16.9375 36.7421875 C-14.56243202 34.49312833 -14.56243202 34.49312833 -14.5 31.5078125 C-14.603125 30.78335938 -14.70625 30.05890625 -14.8125 29.3125 C-18.06918446 28.23678934 -19.37816357 28.09690775 -22.50390625 29.6484375 C-23.45136719 30.32132813 -24.39882813 30.99421875 -25.375 31.6875 C-26.42945313 32.43128906 -27.48390625 33.17507812 -28.5703125 33.94140625 C-29.65196734 34.73050352 -30.73271102 35.52085143 -31.8125 36.3125 C-32.79992187 37.02277344 -33.78734375 37.73304688 -34.8046875 38.46484375 C-41.33106231 43.25142899 -47.52305458 48.36649534 -53.6640625 53.62890625 C-56.48975889 56.04835511 -59.36042479 58.40698667 -62.25 60.75 C-67.16537173 64.74687891 -71.9633961 68.86842971 -76.75708008 73.00927734 C-79.91842941 75.72820308 -83.10894867 78.36049655 -86.4375 80.875 C-90.06595294 83.63504769 -93.41499113 86.6473483 -96.75 89.75 C-111.34215046 103.3125 -111.34215046 103.3125 -114.8125 103.3125 C-109.53872766 77.2449967 -95.07908802 54.26271782 -76.8125 35.3125 C-76.15765625 34.59449219 -75.5028125 33.87648437 -74.828125 33.13671875 C-55.99287123 13.05383065 -27.3822886 0.16762223 0 0 Z " fill="#D25433" transform="translate(667.8125,120.6875)"/>
    <path d="M0 0 C0.05607422 1.25103516 0.05607422 1.25103516 0.11328125 2.52734375 C0.62131903 11.22375519 1.16603237 19.97867459 7.39550781 26.68505859 C14.27788568 32.32542487 23.83998402 35.05355892 32.03146362 38.2762146 C35.03311987 39.45790245 38.03009178 40.65127392 41.02748108 41.84373474 C43.52380582 42.83670877 46.02069287 43.82826057 48.51757812 44.81982422 C57.77150492 48.49768318 67.01747153 52.19521816 76.25650024 55.91033936 C78.37241095 56.75987035 80.48925096 57.60709049 82.60702515 58.45196533 C85.59313821 59.64342647 88.57615772 60.8423385 91.55859375 62.04296875 C92.45499573 62.39867447 93.35139771 62.75438019 94.27496338 63.12086487 C95.10389099 63.45633835 95.9328186 63.79181183 96.78686523 64.13745117 C97.50736557 64.42609543 98.22786591 64.71473969 98.97019958 65.01213074 C101.21366219 66.10398575 103.05231485 67.44830338 105 69 C99.67427057 71.91811629 94.34456044 74.82863948 89.0078125 77.7265625 C85.30152468 79.73969431 81.60868305 81.77340338 77.9296875 83.8359375 C76.43245835 84.66176061 74.93507269 85.48730004 73.4375 86.3125 C72.75502197 86.70300537 72.07254395 87.09351074 71.36938477 87.49584961 C67.32962489 89.69736334 65.3819861 90.21585243 61 89 C58.78494277 88.2001231 56.58720498 87.35166876 54.40234375 86.47265625 C53.42839409 86.08262169 53.42839409 86.08262169 52.43476868 85.68470764 C50.26719905 84.81507552 48.10232684 83.93893549 45.9375 83.0625 C44.38583075 82.43776827 42.83407067 81.81326209 41.28222656 81.18896484 C22.41334066 73.58684434 3.59416529 65.86168505 -15.2253418 58.1383667 C-18.92318942 56.62124052 -22.62163764 55.10558193 -26.32012939 53.59002686 C-30.71361339 51.78965726 -35.10682493 49.98862328 -39.5 48.1875 C-40.71012756 47.69144257 -40.71012756 47.69144257 -41.94470215 47.18536377 C-50.97427508 43.48329001 -59.9974625 39.76746133 -69 36 C-66.78069331 33.56501297 -64.62000716 32.10969335 -61.6953125 30.609375 C-60.81593018 30.15449707 -59.93654785 29.69961914 -59.03051758 29.23095703 C-57.59228638 28.4978833 -57.59228638 28.4978833 -56.125 27.75 C-55.12428467 27.23421387 -54.12356934 26.71842773 -53.0925293 26.18701172 C-50.90607196 25.06031601 -48.71843392 23.93590941 -46.52978516 22.81347656 C-42.83147595 20.91341841 -39.13949596 19.00152813 -35.44921875 17.0859375 C-32.90374958 15.76542493 -30.35816559 14.44513387 -27.8125 13.125 C-27.21060852 12.81284546 -26.60871704 12.50069092 -25.98858643 12.17907715 C-21.99703004 10.11029016 -18.00044579 8.05154074 -14 6 C-12.85837402 5.4131543 -11.71674805 4.82630859 -10.54052734 4.22167969 C-9.45852051 3.67157227 -8.37651367 3.12146484 -7.26171875 2.5546875 C-6.29580811 2.06210449 -5.32989746 1.56952148 -4.3347168 1.06201172 C-2 0 -2 0 0 0 Z " fill="#FCBF3A" transform="translate(145,383)"/>
    <path d="M0 0 C1.98 0.66 3.96 1.32 6 2 C5.01 2.33 4.02 2.66 3 3 C3 47.88 3 92.76 3 139 C4.65 139.66 6.3 140.32 8 141 C5 142 5 142 0 140 C0 93.8 0 47.6 0 0 Z " fill="#F9CD3B" transform="translate(53,440)"/>
    <path d="M0 0 C0.66 0 1.32 0 2 0 C2.00219984 1.05494392 2.00219984 1.05494392 2.00444412 2.13119984 C2.04147074 19.23169653 2.10043006 36.331976 2.18390274 53.43230915 C2.22373854 61.70186508 2.25610786 69.97132522 2.27099609 78.2409668 C2.28398918 85.44749402 2.31089348 92.65381089 2.35461307 99.86021966 C2.37728103 103.67719813 2.39290752 107.49391664 2.39188385 111.3109684 C2.39114035 114.90211358 2.40896463 118.49268295 2.44116783 122.0836792 C2.4537782 124.03325913 2.44657865 125.98293546 2.43885803 127.93254089 C2.45277084 129.08940399 2.46668365 130.24626709 2.48101807 131.43818665 C2.48470524 132.44570638 2.48839241 133.45322611 2.49219131 134.49127674 C2.77515895 137.16172937 2.77515895 137.16172937 5.03243637 138.84761333 C5.68173237 139.22790093 6.33102837 139.60818853 7 140 C1.125 139.125 1.125 139.125 0 138 C-0.09636838 136.21572813 -0.12187453 134.42760347 -0.12025452 132.64073181 C-0.12162918 131.47820389 -0.12300385 130.31567596 -0.12442017 129.11791992 C-0.12082489 127.83111328 -0.11722961 126.54430664 -0.11352539 125.21850586 C-0.11324352 123.85876976 -0.11340125 122.4990335 -0.1139679 121.13929749 C-0.11425587 117.43698222 -0.10835912 113.73469908 -0.10139394 110.03239131 C-0.09516043 106.16731219 -0.0945566 102.30223242 -0.09336853 98.43714905 C-0.09025521 91.11315318 -0.0820418 83.78917216 -0.07201904 76.46518284 C-0.06085794 68.12916552 -0.05534746 59.79314751 -0.05032361 51.45712459 C-0.03985919 34.30474112 -0.02225973 17.15237213 0 0 Z " fill="#FDD63A" transform="translate(306,509)"/>
    <path d="M0 0 C7.59 2.97 15.18 5.94 23 9 C22.67 9.66 22.34 10.32 22 11 C12.1 7.04 12.1 7.04 2 3 C2.00580078 5.64733154 2.01160156 8.29466309 2.01757812 11.0222168 C2.06542573 39.52408306 1.85449939 68.0190769 1.53643799 96.51898193 C1.47432618 102.13307821 1.41504341 107.74720445 1.35546875 113.36132812 C1.2396292 124.24091511 1.12085185 135.12046761 1 146 C0.67 146 0.34 146 0 146 C0 97.82 0 49.64 0 0 Z " fill="#EDBB3B" transform="translate(171,242)"/>
    <path d="M0 0 C2.65324975 1.08805416 5.23105118 2.31500559 7.8125 3.5625 C8.50537109 3.89185547 9.19824219 4.22121094 9.91210938 4.56054688 C11.61044948 5.36872251 13.30555769 6.18368377 15 7 C11.89414606 9.56713945 8.82599802 11.83802149 5.3125 13.8125 C4.54550781 14.25207031 3.77851563 14.69164062 2.98828125 15.14453125 C2.33214844 15.42683594 1.67601562 15.70914062 1 16 C0.34 15.67 -0.32 15.34 -1 15 C-0.01 14.01 0.98 13.02 2 12 C1.01 12 0.02 12 -1 12 C-0.67 9.03 -0.34 6.06 0 3 C-0.99 2.34 -1.98 1.68 -3 1 C-5.67145537 1.80161791 -5.67145537 1.80161791 -8 3 C-7.67 2.01 -7.34 1.02 -7 0 C-4.20696493 -1.39651753 -3.01589753 -0.82700601 0 0 Z " fill="#F39D23" transform="translate(286,466)"/>
    <path d="M0 0 C2.475 0.495 2.475 0.495 5 1 C1.25112395 5.94501549 -2.71895017 9.21333339 -7.875 12.625 C-8.55691406 13.0890625 -9.23882813 13.553125 -9.94140625 14.03125 C-14.18547056 16.89296193 -18.44470536 19.6595604 -23 22 C-23.66 21.67 -24.32 21.34 -25 21 C-19.555 17.535 -19.555 17.535 -14 14 C-14.99 13.67 -15.98 13.34 -17 13 C-18.1875 10.9375 -18.1875 10.9375 -19 9 C-17.68 7.68 -16.36 6.36 -15 5 C-14.71125 5.639375 -14.4225 6.27875 -14.125 6.9375 C-13.17176549 9.15206079 -13.17176549 9.15206079 -11 10 C-10.67 9.34 -10.34 8.68 -10 8 C-10 8.99 -10 9.98 -10 11 C-9.34 9.68 -8.68 8.36 -8 7 C-7.01 7.33 -6.02 7.66 -5 8 C-5 6.02 -5 4.04 -5 2 C-3.35 2.66 -1.7 3.32 0 4 C0 3.01 0 2.02 0 1 C0 0.67 0 0.34 0 0 Z " fill="#DF5A30" transform="translate(639,209)"/>
    <path d="M0 0 C0.928125 0.5259375 0.928125 0.5259375 1.875 1.0625 C2.57625 1.371875 3.2775 1.68125 4 2 C4.66 1.67 5.32 1.34 6 1 C5.67 2.32 5.34 3.64 5 5 C4.34 5 3.68 5 3 5 C3 5.66 3 6.32 3 7 C6.3 7.33 9.6 7.66 13 8 C13 8.99 13 9.98 13 11 C15.85078091 11.76716851 15.85078091 11.76716851 19 12 C20.89958081 10.68681738 20.89958081 10.68681738 22 9 C22.33 10.98 22.66 12.96 23 15 C23.59167969 15.19335938 24.18335938 15.38671875 24.79296875 15.5859375 C28.9146645 16.94414719 32.9950524 18.32050585 37 20 C37 20.66 37 21.32 37 22 C29.53358318 19.62581044 22.24658417 16.85565917 14.98583984 13.92138672 C13.65082094 13.38600048 12.31250459 12.85877133 10.97119141 12.33935547 C9.01442348 11.58084106 7.06938447 10.79744275 5.125 10.0078125 C3.97257812 9.55035645 2.82015625 9.09290039 1.6328125 8.62158203 C-1 7 -1 7 -2.0078125 4.43701172 C-2 2 -2 2 0 0 Z " fill="#101F3E" transform="translate(396,184)"/>
    <path d="M0 0 C0.66 0.33 1.32 0.66 2 1 C-1.75 4 -1.75 4 -4 4 C-3.67 4.99 -3.34 5.98 -3 7 C-3.99 7.33 -4.98 7.66 -6 8 C-6.33 9.98 -6.66 11.96 -7 14 C-6.34 14.33 -5.68 14.66 -5 15 C-9.84659077 14.40895235 -13.60748167 13.02055843 -18 11 C-14.8957689 7.67982753 -11.41726384 5.85848416 -7.4375 3.75 C-6.75236328 3.37359375 -6.06722656 2.9971875 -5.36132812 2.609375 C-3.60800149 1.67334979 -1.80643507 0.82890879 0 0 Z " fill="#F5CC39" transform="translate(94,408)"/>
    <path d="M0 0 C0.33 0 0.66 0 1 0 C1.02578125 0.89460938 1.0515625 1.78921875 1.078125 2.7109375 C1.49129302 11.51892848 2.0231554 19.92118502 8.4375 26.5 C10.90934793 27.94693537 13.29209338 29.07157487 16 30 C16.33 29.34 16.66 28.68 17 28 C18.5 29.375 18.5 29.375 20 31 C20 31.66 20 32.32 20 33 C22.97 33.99 25.94 34.98 29 36 C24.97345651 37.34218116 22.49756217 35.97372242 18.75 34.4375 C18.07412842 34.16083496 17.39825684 33.88416992 16.7019043 33.59912109 C11.70782688 31.46907186 7.48725925 29.27504372 4 25 C3.35804688 24.22849609 3.35804688 24.22849609 2.703125 23.44140625 C-1.70161571 16.66836317 -0.31591974 7.72248255 0 0 Z " fill="#0D163D" transform="translate(146,383)"/>
    <path d="M0 0 C0 0.66 0 1.32 0 2 C-3.12202006 3.50626117 -6.24808399 5.00393243 -9.375 6.5 C-10.26445312 6.92925781 -11.15390625 7.35851562 -12.0703125 7.80078125 C-12.92109375 8.20683594 -13.771875 8.61289063 -14.6484375 9.03125 C-15.43395996 9.40830078 -16.21948242 9.78535156 -17.02880859 10.17382812 C-19 11 -19 11 -21 11 C-21.268125 11.5775 -21.53625 12.155 -21.8125 12.75 C-23.01839219 15.03484837 -24.43097836 16.95345004 -26 19 C-26.33 19.66 -26.66 20.32 -27 21 C-27.98020375 22.0194119 -28.97803008 23.02246356 -30 24 C-31.30825217 19.60328212 -31.30825217 19.60328212 -29.96411133 16.97265625 C-24.93398847 11.30262582 -19.51240551 8.18166967 -12.6875 5 C-11.18606445 4.26716797 -11.18606445 4.26716797 -9.65429688 3.51953125 C-2.35398065 0 -2.35398065 0 0 0 Z " fill="#081824" transform="translate(177,203)"/>
    <path d="M0 0 C1 2 1 2 0.0625 4.9375 C-0.288125 5.948125 -0.63875 6.95875 -1 8 C-1 8.99 -1 9.98 -1 11 C-2 14 -2 14 -4 15 C-5.24061454 18.17045938 -6 20.58238295 -6 24 C-6.99 24.33 -7.98 24.66 -9 25 C-4.53741497 4.53741497 -4.53741497 4.53741497 0 0 Z " fill="#E25E2D" transform="translate(562,199)"/>
    <path d="M0 0 C0.33 0.99 0.66 1.98 1 3 C1.99 3 2.98 3 4 3 C4.3125 5.13671875 4.3125 5.13671875 4 8 C2.38587866 10.13582841 0.86238098 11.92746844 -1 13.8125 C-1.47695313 14.31458984 -1.95390625 14.81667969 -2.4453125 15.33398438 C-3.619201 16.5665673 -4.80816886 17.78475789 -6 19 C-6 15.70776216 -5.49481868 13.91489643 -4 11 C-2 9.875 -2 9.875 0 9 C0.66 8.01 1.32 7.02 2 6 C0.35 6.66 -1.3 7.32 -3 8 C-2.74438677 5.6568787 -2.40729228 3.32156597 -2 1 C-1.34 0.67 -0.68 0.34 0 0 Z " fill="#2D93D4" transform="translate(573,142)"/>
    <path d="M0 0 C5.95906559 0.65099036 11.2603985 2.80207635 16.8125 4.9375 C17.77865234 5.29779297 18.74480469 5.65808594 19.74023438 6.02929688 C20.65740234 6.37927734 21.57457031 6.72925781 22.51953125 7.08984375 C23.35589111 7.40816162 24.19225098 7.72647949 25.05395508 8.05444336 C27 9 27 9 28 11 C23.42600291 10.21511292 19.09842491 8.84473878 14.6875 7.4375 C13.94693359 7.20353516 13.20636719 6.96957031 12.44335938 6.72851562 C10.62816595 6.15468028 8.81397994 5.57765989 7 5 C7 4.34 7 3.68 7 3 C6.030625 2.87625 5.06125 2.7525 4.0625 2.625 C3.051875 2.41875 2.04125 2.2125 1 2 C0.67 1.34 0.34 0.68 0 0 Z " fill="#0B163E" transform="translate(403,517)"/>
    <path d="M0 0 C0 0.99 0 1.98 0 3 C-0.54785156 3.1959375 -1.09570312 3.391875 -1.66015625 3.59375 C-8.05302974 6.00537057 -13.9262897 9.01333878 -19.82055664 12.4453125 C-24.52870719 15.08657569 -24.52870719 15.08657569 -27.20751953 14.59448242 C-27.79903809 14.39830322 -28.39055664 14.20212402 -29 14 C-28.35973877 13.68248779 -27.71947754 13.36497559 -27.05981445 13.0378418 C-24.14298075 11.58985635 -21.22773055 10.13871019 -18.3125 8.6875 C-16.80139648 7.93823242 -16.80139648 7.93823242 -15.25976562 7.17382812 C-14.28330078 6.68720703 -13.30683594 6.20058594 -12.30078125 5.69921875 C-11.40528564 5.25408936 -10.50979004 4.80895996 -9.5871582 4.3503418 C-7.7863944 3.41045083 -6.02272962 2.39741605 -4.29370117 1.33129883 C-2 0 -2 0 0 0 Z " fill="#0E153D" transform="translate(387,251)"/>
    <path d="M0 0 C5.85659906 1.66153012 11.4590134 3.47041916 17 6 C13.28233332 7.23922223 11.56110463 6.57018942 7.8125 5.5625 C6.72582031 5.27503906 5.63914062 4.98757813 4.51953125 4.69140625 C3.27236328 4.34916016 3.27236328 4.34916016 2 4 C2.33 5.32 2.66 6.64 3 8 C1.68 8.33 0.36 8.66 -1 9 C-1 6 -1 6 1 3 C0.67 2.01 0.34 1.02 0 0 Z " fill="#F6CA37" transform="translate(343,523)"/>
    <path d="M0 0 C0 0.99 0 1.98 0 3 C-7 6.5 -7 6.5 -14 10 C-14 10.66 -14 11.32 -14 12 C-16.31 12 -18.62 12 -21 12 C-21 11.34 -21 10.68 -21 10 C-14.07 6.7 -7.14 3.4 0 0 Z " fill="#F3D039" transform="translate(269,188)"/>
    <path d="M0 0 C0.66 0.66 1.32 1.32 2 2 C1.625 4.125 1.625 4.125 1 6 C0.773125 5.360625 0.54625 4.72125 0.3125 4.0625 C-0.83236241 1.81593679 -0.83236241 1.81593679 -3.203125 1.13671875 C-7.15519552 0.94353095 -8.87622925 2.47812048 -12.0625 4.75 C-13.59583984 5.82507813 -13.59583984 5.82507813 -15.16015625 6.921875 C-17.45234829 8.59924249 -19.73623302 10.2845315 -22 12 C-22.66 11.67 -23.32 11.34 -24 11 C-22.7934375 10.1028125 -22.7934375 10.1028125 -21.5625 9.1875 C-18.77672016 7.19052724 -18.77672016 7.19052724 -18 4 C-16.0187415 3.27954236 -14.01495907 2.61998741 -12 2 C-11.195625 1.443125 -10.39125 0.88625 -9.5625 0.3125 C-6.02672388 -1.49850728 -3.7882571 -0.92919514 0 0 Z " fill="#EB5D2F" transform="translate(654,148)"/>
    <path d="M0 0 C0.66 0.33 1.32 0.66 2 1 C0.9171875 2.06541016 0.9171875 2.06541016 -0.1875 3.15234375 C-1.115625 4.07144531 -2.04375 4.99054688 -3 5.9375 C-3.928125 6.85402344 -4.85625 7.77054688 -5.8125 8.71484375 C-8.11525049 10.59316238 -8.11525049 10.59316238 -8 12 C-2.72 12.33 2.56 12.66 8 13 C8 13.33 8 13.66 8 14 C1.73 14 -4.54 14 -11 14 C-11 11 -11 11 -8.59375 8.30078125 C-7.5700032 7.29697757 -6.5383946 6.30114351 -5.5 5.3125 C-4.97535156 4.80138672 -4.45070313 4.29027344 -3.91015625 3.76367188 C-2.61339096 2.50227292 -1.30753883 1.25022788 0 0 Z " fill="#F5652C" transform="translate(575,227)"/>
    <path d="M0 0 C0.66 0.33 1.32 0.66 2 1 C-0.49863124 2.41912551 -2.99884281 3.8353384 -5.5 5.25 C-6.19609375 5.64574219 -6.8921875 6.04148437 -7.609375 6.44921875 C-12.33786561 9.1199403 -17.12513514 11.60648527 -22 14 C-22 13.34 -22 12.68 -22 12 C-21.36191406 11.67386719 -20.72382813 11.34773438 -20.06640625 11.01171875 C-19.24011719 10.57472656 -18.41382813 10.13773437 -17.5625 9.6875 C-16.73878906 9.25824219 -15.91507812 8.82898438 -15.06640625 8.38671875 C-12.69352356 7.09979113 -12.69352356 7.09979113 -12 4 C-10.01350109 3.44638555 -8.02164108 2.90248863 -6.00390625 2.4765625 C-3.87650862 2.05113661 -3.87650862 2.05113661 -1.625 0.8125 C-1.08875 0.544375 -0.5525 0.27625 0 0 Z " fill="#0F1C43" transform="translate(372,287)"/>
    <path d="M0 0 C7.59 2.97 15.18 5.94 23 9 C22.67 9.66 22.34 10.32 22 11 C12.1 7.04 12.1 7.04 2 3 C2 4.65 2 6.3 2 8 C1.34 7.67 0.68 7.34 0 7 C0 4.69 0 2.38 0 0 Z " fill="#F1D939" transform="translate(171,242)"/>
    <path d="M0 0 C4.95 1.98 9.9 3.96 15 6 C12 7 12 7 10 7 C9.34 8.65 8.68 10.3 8 12 C7.34 10.68 6.68 9.36 6 8 C6.66 8 7.32 8 8 8 C7.67 7.01 7.34 6.02 7 5 C3.39007621 5.65585189 3.39007621 5.65585189 0 7 C0.33 5.68 0.66 4.36 1 3 C0.34 3 -0.32 3 -1 3 C-0.67 2.01 -0.34 1.02 0 0 Z " fill="#F8CB39" transform="translate(336,167)"/>
    <path d="M0 0 C1.98 0.495 1.98 0.495 4 1 C4 1.66 4 2.32 4 3 C4.66386719 3.10183594 5.32773438 3.20367187 6.01171875 3.30859375 C9.79173327 4.18318535 13.23270859 5.58605015 16.8125 7.0625 C17.50537109 7.34416016 18.19824219 7.62582031 18.91210938 7.91601562 C20.60967624 8.60674973 22.30506312 9.30283728 24 10 C23.34 10.66 22.68 11.32 22 12 C14.74 9.03 7.48 6.06 0 3 C0 2.01 0 1.02 0 0 Z " fill="#13193D" transform="translate(209,432)"/>
    <path d="M0 0 C1 2 1 2 0.546875 3.7421875 C0.28390625 4.44601563 0.0209375 5.14984375 -0.25 5.875 C-2.79155691 13.0799641 -4.54997456 20.50364208 -6 28 C-6.33 28 -6.66 28 -7 28 C-7.56424169 21.68049312 -6.51424816 16.60481079 -4.625 10.625 C-4.40368408 9.92310547 -4.18236816 9.22121094 -3.9543457 8.49804688 C-2.9107724 5.32711587 -1.86273716 2.79410573 0 0 Z " fill="#061721" transform="translate(545,198)"/>
    <path d="M0 0 C6.61242722 1.82221376 12.80520671 4.05223604 19 7 C15.31638827 8.22787058 14.51592673 7.6048575 11.0625 6.0625 C7.57202798 4.50942421 5.93689355 4 2 4 C2 4.66 2 5.32 2 6 C1.01 6.33 0.02 6.66 -1 7 C-1.625 4.625 -1.625 4.625 -2 2 C-1.34 1.34 -0.68 0.68 0 0 Z " fill="#F7D037" transform="translate(402,194)"/>
    <path d="M0 0 C-0.54269531 0.25394531 -1.08539063 0.50789063 -1.64453125 0.76953125 C-2.35996094 1.11371094 -3.07539063 1.45789063 -3.8125 1.8125 C-4.52019531 2.14894531 -5.22789062 2.48539062 -5.95703125 2.83203125 C-8.02821172 4.01612869 -9.37349709 5.27298287 -11 7 C-13.4375 8.8125 -13.4375 8.8125 -16 10 C-18.16015625 9.07421875 -18.16015625 9.07421875 -20 8 C-17.23796468 6.46276266 -14.46414848 4.94815839 -11.6875 3.4375 C-10.50897461 2.78104492 -10.50897461 2.78104492 -9.30664062 2.11132812 C-8.1706543 1.49741211 -8.1706543 1.49741211 -7.01171875 0.87109375 C-6.31522217 0.48880615 -5.61872559 0.10651855 -4.90112305 -0.28735352 C-3 -1 -3 -1 0 0 Z " fill="#F1CF37" transform="translate(377,470)"/>
    <path d="M0 0 C0.66 0.33 1.32 0.66 2 1 C-0.42201835 6.69174312 -0.42201835 6.69174312 -2.875 8 C-5.60964304 8 -7.54642891 7.15863079 -10 6 C-7.31100548 2.67830089 -3.94687492 1.43522725 0 0 Z " fill="#EAC139" transform="translate(207,218)"/>
    <path d="M0 0 C0.33 0.99 0.66 1.98 1 3 C-0.09445838 3.86657116 -1.20097781 4.71792724 -2.3125 5.5625 C-2.92738281 6.03816406 -3.54226562 6.51382813 -4.17578125 7.00390625 C-4.77777344 7.33261719 -5.37976563 7.66132813 -6 8 C-6.99 7.67 -7.98 7.34 -9 7 C-11.63804589 7.39397335 -11.63804589 7.39397335 -14 8 C-12.41727399 4.83454798 -9.60316869 4.28879378 -6.4375 2.875 C-5.23996094 2.33617187 -4.04242188 1.79734375 -2.80859375 1.2421875 C-1.88175781 0.83226562 -0.95492187 0.42234375 0 0 Z " fill="#F5CC39" transform="translate(246,199)"/>
    <path d="M0 0 C0.66 0.33 1.32 0.66 2 1 C-0.87021278 2.63356419 -3.74696257 4.2552673 -6.625 5.875 C-7.43324219 6.33519531 -8.24148438 6.79539062 -9.07421875 7.26953125 C-13.30380876 9.64222808 -17.30068672 11.67689238 -22 13 C-21.67 11.68 -21.34 10.36 -21 9 C-20.16984375 8.92007812 -19.3396875 8.84015625 -18.484375 8.7578125 C-14.21757887 7.82983218 -11.0054981 6.03680932 -7.25 3.875 C-4.85534448 2.50071593 -2.47812317 1.22720454 0 0 Z " fill="#F2A720" transform="translate(449,395)"/>
    <path d="M0 0 C7.06740445 -0.35077191 12.60647796 -0.19676102 19 3 C21 5.1875 21 5.1875 22 7 C21.67 7.66 21.34 8.32 21 9 C20.278125 8.195625 19.55625 7.39125 18.8125 6.5625 C14.69715739 2.81296562 11.3905688 2.84598375 6 3 C6 2.34 6 1.68 6 1 C4.02 1 2.04 1 0 1 C0 0.67 0 0.34 0 0 Z " fill="#06141B" transform="translate(680,106)"/>
    <path d="M0 0 C2.31 0.66 4.62 1.32 7 2 C7 1.34 7 0.68 7 0 C7.99 0.33 8.98 0.66 10 1 C10 1.66 10 2.32 10 3 C13.63 4.32 17.26 5.64 21 7 C21 7.66 21 8.32 21 9 C13.63011293 7.033631 6.86954798 4.30417422 0 1 C0 0.67 0 0.34 0 0 Z " fill="#EFD337" transform="translate(400,514)"/>
    <path d="M0 0 C0.66 0.33 1.32 0.66 2 1 C1.67 1.7425 1.34 2.485 1 3.25 C-0.22782871 6.13883312 -0.22782871 6.13883312 0 10 C-1.65 9.67 -3.3 9.34 -5 9 C-5 8.01 -5 7.02 -5 6 C-5.66 5.67 -6.32 5.34 -7 5 C-4.69 3.35 -2.38 1.7 0 0 Z " fill="#319DDD" transform="translate(641,235)"/>
    <path d="M0 0 C1 3 1 3 -0.65234375 6.35546875 C-1.40377702 7.63889017 -2.16596501 8.91606134 -2.9375 10.1875 C-3.51661133 11.16879883 -3.51661133 11.16879883 -4.10742188 12.16992188 C-5.06253088 13.78535316 -6.03010066 15.39340525 -7 17 C-7.33 16.34 -7.66 15.68 -8 15 C-7.67 14.4225 -7.34 13.845 -7 13.25 C-5.64958926 10.21157584 -6.27766386 8.17827903 -7 5 C-6.21625 4.731875 -5.4325 4.46375 -4.625 4.1875 C-1.71885077 3.15185568 -1.71885077 3.15185568 0 0 Z " fill="#E05B30" transform="translate(675,166)"/>
    <path d="M0 0 C0.33 0.66 0.66 1.32 1 2 C-3.75 5 -3.75 5 -6 5 C-5.67 6.32 -5.34 7.64 -5 9 C-8 11 -8 11 -10.1875 10.625 C-10.785625 10.41875 -11.38375 10.2125 -12 10 C-11.84765625 8.203125 -11.84765625 8.203125 -11 6 C-8.49609375 4.296875 -8.49609375 4.296875 -5.4375 2.75 C-4.42558594 2.22921875 -3.41367187 1.7084375 -2.37109375 1.171875 C-1.58863281 0.78515625 -0.80617188 0.3984375 0 0 Z " fill="#F29D22" transform="translate(513,549)"/>
    <path d="M0 0 C0.33 0.66 0.66 1.32 1 2 C0.38125 2.0825 -0.2375 2.165 -0.875 2.25 C-1.57625 2.4975 -2.2775 2.745 -3 3 C-3.2475 3.61875 -3.495 4.2375 -3.75 4.875 C-5.78590948 8.33604611 -9.31809692 8.81024547 -13 10 C-14.66905395 10.66066719 -16.3369416 11.32438252 -18 12 C-14.6883681 8.28695817 -11.0522696 6.11100161 -6.75 3.75 C-6.1003125 3.38648438 -5.450625 3.02296875 -4.78125 2.6484375 C-3.19081574 1.75966541 -1.59585552 0.87900064 0 0 Z " fill="#0B1844" transform="translate(571,657)"/>
    <path d="M0 0 C0.72445312 0.2165625 1.44890625 0.433125 2.1953125 0.65625 C9.46667314 2.76603569 9.46667314 2.76603569 17 3 C16.67 4.32 16.34 5.64 16 7 C9.97229862 6.52412884 5.23321711 3.80277043 0 1 C0 0.67 0 0.34 0 0 Z " fill="#F3CD38" transform="translate(237,415)"/>
    <path d="M0 0 C0 0.33 0 0.66 0 1 C-3.63 1.33 -7.26 1.66 -11 2 C-11 2.66 -11 3.32 -11 4 C-16.94 4.495 -16.94 4.495 -23 5 C-22 3 -22 3 -19.62890625 2.1484375 C-12.94493359 0.46254376 -6.8904088 -0.41159522 0 0 Z " fill="#E75A2E" transform="translate(662,122)"/>
    <path d="M0 0 C4.97306516 0.49730652 8.63799813 1.55302334 13 4 C11 5 11 5 8.25 4.4375 C4.55270071 3.93978663 2.41932708 4.61598666 -1 6 C-0.67 4.02 -0.34 2.04 0 0 Z " fill="#F8CC3A" transform="translate(310,511)"/>
    <path d="M0 0 C0.66 0.33 1.32 0.66 2 1 C0.9171875 1.61488281 0.9171875 1.61488281 -0.1875 2.2421875 C-1.115625 2.78101563 -2.04375 3.31984375 -3 3.875 C-3.928125 4.40867187 -4.85625 4.94234375 -5.8125 5.4921875 C-6.534375 5.98976563 -7.25625 6.48734375 -8 7 C-8 7.66 -8 8.32 -8 9 C-10.97 9.66 -13.94 10.32 -17 11 C-13.84396286 7.49415579 -10.52064805 5.41005398 -6.375 3.1875 C-5.22773437 2.56230469 -4.08046875 1.93710937 -2.8984375 1.29296875 C-1.46371094 0.65294922 -1.46371094 0.65294922 0 0 Z " fill="#F3A91E" transform="translate(608,494)"/>
    <path d="M0 0 C2.97 0.495 2.97 0.495 6 1 C2.27528861 4.10719345 -1.9213036 6.07286298 -6.25 8.1875 C-6.99507813 8.55552734 -7.74015625 8.92355469 -8.5078125 9.30273438 C-10.33674317 10.2054758 -12.16813096 11.1032362 -14 12 C-14 11.34 -14 10.68 -14 10 C-13.07316406 9.52949219 -12.14632813 9.05898438 -11.19140625 8.57421875 C-9.98150649 7.9458212 -8.77188538 7.31688694 -7.5625 6.6875 C-6.95083984 6.37876953 -6.33917969 6.07003906 -5.70898438 5.75195312 C-1.83641386 3.81806145 -1.83641386 3.81806145 0 0 Z " fill="#F0D538" transform="translate(366,257)"/>
    <path d="M0 0 C0.66 0.33 1.32 0.66 2 1 C-2.62 3.97 -7.24 6.94 -12 10 C-12.33 8.68 -12.66 7.36 -13 6 C-11 4 -11 4 -8.1875 3.5625 C-4.81908158 2.96807322 -2.88058855 1.76035967 0 0 Z " fill="#F0A01F" transform="translate(527,682)"/>
    <path d="M0 0 C0.66 0.99 1.32 1.98 2 3 C-2.29456388 5.30440013 -6.31479085 6.78184562 -11 8 C-10 5 -10 5 -7.71484375 3.61328125 C-6.79832031 3.18402344 -5.88179688 2.75476563 -4.9375 2.3125 C-4.01839844 1.87550781 -3.09929687 1.43851563 -2.15234375 0.98828125 C-1.08693359 0.49908203 -1.08693359 0.49908203 0 0 Z " fill="#EFC738" transform="translate(302,172)"/>
    <path d="M0 0 C0.66 0.33 1.32 0.66 2 1 C1.67 2.65 1.34 4.3 1 6 C-2.00419641 7.0013988 -4.87709365 7.51421457 -8 8 C-5.33333333 5.33333333 -2.66666667 2.66666667 0 0 Z " fill="#09202E" transform="translate(598,130)"/>
    <path d="M0 0 C0.99 0.33 1.98 0.66 3 1 C2.3125 3.375 2.3125 3.375 1 6 C-1.5 7.25 -1.5 7.25 -4 8 C-4.99 8.495 -4.99 8.495 -6 9 C-6 5 -6 5 -3.1875 2.1875 C-2.135625 1.465625 -1.08375 0.74375 0 0 Z " fill="#0D2533" transform="translate(460,70)"/>
    <path d="M0 0 C8.35010941 2.3107221 8.35010941 2.3107221 11.0625 5.1875 C11.371875 5.785625 11.68125 6.38375 12 7 C11.01 7.33 10.02 7.66 9 8 C8.67 8.99 8.34 9.98 8 11 C7.34 10.67 6.68 10.34 6 10 C6.33 8.02 6.66 6.04 7 4 C4.69 3.34 2.38 2.68 0 2 C0 1.34 0 0.68 0 0 Z " fill="#F7C839" transform="translate(378,184)"/>
    <path d="M0 0 C0.33 0.66 0.66 1.32 1 2 C-0.78881736 3.00508801 -2.58114696 4.00392736 -4.375 5 C-5.37273437 5.556875 -6.37046875 6.11375 -7.3984375 6.6875 C-10 8 -10 8 -12 8 C-12.33 8.99 -12.66 9.98 -13 11 C-13.66 10.67 -14.32 10.34 -15 10 C-14 7 -14 7 -10.83984375 5.17578125 C-9.54399131 4.54446852 -8.24293771 3.92374601 -6.9375 3.3125 C-6.27427734 2.99216797 -5.61105469 2.67183594 -4.92773438 2.34179688 C-3.28949142 1.5521402 -1.64528546 0.77487638 0 0 Z " fill="#0A143E" transform="translate(236,459)"/>
    <path d="M0 0 C0.33 0.66 0.66 1.32 1 2 C-0.98 2.99 -2.96 3.98 -5 5 C-4.67 5.66 -4.34 6.32 -4 7 C-4.33 7.99 -4.66 8.98 -5 10 C-5.99 10 -6.98 10 -8 10 C-8.33 8.35 -8.66 6.7 -9 5 C-6.03 3.35 -3.06 1.7 0 0 Z " fill="#F59D22" transform="translate(379,285)"/>
    <path d="M0 0 C1.19625 0.350625 2.3925 0.70125 3.625 1.0625 C7.37673012 2.01712172 10.2006739 1.94983153 14 1 C14 1.66 14 2.32 14 3 C13.01 3.495 13.01 3.495 12 4 C12.66 4.66 13.32 5.32 14 6 C8.65155992 5.46515599 4.64203897 3.53309233 0 1 C0 0.67 0 0.34 0 0 Z " fill="#0B173E" transform="translate(64,443)"/>
    <path d="M0 0 C0.33 0 0.66 0 1 0 C1.375 2.25 1.375 2.25 1 5 C-1.6875 7.0625 -1.6875 7.0625 -5 9 C-6.68083079 10.31543279 -8.3524116 11.64316249 -10 13 C-8.60366893 9.81440048 -6.95442507 7.76056155 -4.4375 5.375 C-1.85984611 2.95478041 -1.85984611 2.95478041 0 0 Z " fill="#081D2C" transform="translate(539,238)"/>
    <path d="M0 0 C-4.34242429 4.34242429 -8.13551546 4.7444669 -14 5 C-11.85073619 2.60894402 -10.00963087 1.36721146 -7 0.25 C-5.9790625 -0.14445312 -5.9790625 -0.14445312 -4.9375 -0.546875 C-3 -1 -3 -1 0 0 Z " fill="#E35A2F" transform="translate(638,128)"/>
    <path d="M0 0 C-1.95245185 1.19714555 -3.91214997 2.38248074 -5.875 3.5625 C-6.96554687 4.22378906 -8.05609375 4.88507812 -9.1796875 5.56640625 C-10.57574219 6.27603516 -10.57574219 6.27603516 -12 7 C-12.66 6.67 -13.32 6.34 -14 6 C-13.195625 5.566875 -12.39125 5.13375 -11.5625 4.6875 C-8.72153646 3.19525998 -8.72153646 3.19525998 -8 0 C-2.25 -1.125 -2.25 -1.125 0 0 Z " fill="#F0D136" transform="translate(502,523)"/>
    <path d="M0 0 C5.4556335 0.63437599 9.09695233 2.09695233 13 6 C8.16371695 5.00956295 3.52381127 4.04301154 -1 2 C-0.67 1.34 -0.34 0.68 0 0 Z " fill="#F0D238" transform="translate(423,522)"/>
    <path d="M0 0 C0.66 0.33 1.32 0.66 2 1 C-1.96 4.465 -1.96 4.465 -6 8 C-6.66 7.67 -7.32 7.34 -8 7 C-7.67 5.68 -7.34 4.36 -7 3 C-5.02 3.495 -5.02 3.495 -3 4 C-2.67 3.01 -2.34 2.02 -2 1 C-1.34 0.67 -0.68 0.34 0 0 Z " fill="#E15D30" transform="translate(599,184)"/>
    <path d="M0 0 C9.59453303 1.74259681 9.59453303 1.74259681 13 5 C11.02 5.33 9.04 5.66 7 6 C7 5.01 7 4.02 7 3 C4.69 2.34 2.38 1.68 0 1 C0 0.67 0 0.34 0 0 Z " fill="#0A173D" transform="translate(262,250)"/>
    <path d="M0 0 C0 3.96130371 -1.34877125 4.82914401 -4 7.6875 C-4.7425 8.49574219 -5.485 9.30398437 -6.25 10.13671875 C-6.8275 10.75160156 -7.405 11.36648437 -8 12 C-8 8.70776216 -7.49481868 6.91489643 -6 4 C-4 2.8125 -4 2.8125 -2 2 C-1.34 1.34 -0.68 0.68 0 0 Z " fill="#33A9E8" transform="translate(575,149)"/>
    <path d="M0 0 C4.84659077 0.59104765 8.60748167 1.97944157 13 4 C12.67 4.66 12.34 5.32 12 6 C11.278125 5.690625 10.55625 5.38125 9.8125 5.0625 C7.19692691 4.07439461 4.74881018 3.4712246 2 3 C2 2.34 2 1.68 2 1 C1.34 0.67 0.68 0.34 0 0 Z " fill="#F1D636" transform="translate(111,464)"/>
    <path d="M0 0 C0.598125 0.165 1.19625 0.33 1.8125 0.5 C4.11344336 1.1114124 4.11344336 1.1114124 7 1 C3.535 3.97 3.535 3.97 0 7 C-0.66 6.67 -1.32 6.34 -2 6 C-1.34 5.34 -0.68 4.68 0 4 C0 2.68 0 1.36 0 0 Z " fill="#E65E2E" transform="translate(583,193)"/>
    <path d="M0 0 C0.33 0 0.66 0 1 0 C1 4.29 1 8.58 1 13 C0.01 13.33 -0.98 13.66 -2 14 C-1.33333333 9.33333333 -0.66666667 4.66666667 0 0 Z " fill="#081D28" transform="translate(702,126)"/>
    <path d="M0 0 C0.2475 0.61875 0.495 1.2375 0.75 1.875 C2.20628639 4.35068687 3.37812506 4.95125002 6 6 C1.87248551 5.39301257 -1.3321148 3.96189209 -5 2 C-4.01 1.67 -3.02 1.34 -2 1 C-1.34 0.67 -0.68 0.34 0 0 Z " fill="#F6D438" transform="translate(76,585)"/>
    <path d="M0 0 C0.66 0.33 1.32 0.66 2 1 C1.01 2.98 0.02 4.96 -1 7 C-2.32 6.34 -3.64 5.68 -5 5 C-4 2 -4 2 -2.0625 0.75 C-1.381875 0.5025 -0.70125 0.255 0 0 Z " fill="#F49D20" transform="translate(627,483)"/>
    <path d="M0 0 C-6.75 4 -6.75 4 -9 4 C-9 4.66 -9 5.32 -9 6 C-9.99 6 -10.98 6 -12 6 C-11 3 -11 3 -9.2578125 1.796875 C-8.55398438 1.45140625 -7.85015625 1.1059375 -7.125 0.75 C-6.42632812 0.39421875 -5.72765625 0.0384375 -5.0078125 -0.328125 C-3 -1 -3 -1 0 0 Z " fill="#0A1843" transform="translate(470,388)"/>
    <path d="M0 0 C1.98 0 3.96 0 6 0 C6.33 0.99 6.66 1.98 7 3 C9.00016466 4.20882096 9.00016466 4.20882096 11 5 C6.87248551 4.39301257 3.6678852 2.96189209 0 1 C0 0.67 0 0.34 0 0 Z " fill="#F5D539" transform="translate(391,682)"/>
    <path d="M0 0 C1.65 0.33 3.3 0.66 5 1 C1.98112756 4.48331435 -0.56909529 5.79157144 -5 7 C-3.36587557 5.29159719 -2.13093906 4.06546953 0 3 C0 2.01 0 1.02 0 0 Z " fill="#EEA220" transform="translate(570,653)"/>
    <path d="M0 0 C4.56454251 0.54339792 7.9728176 1.79463821 12 4 C8.8168485 5.59157575 6.38676935 4.77242108 3 4 C1.0625 1.9375 1.0625 1.9375 0 0 Z " fill="#F4D73A" transform="translate(324,516)"/>
    <path d="M0 0 C0 0.99 0 1.98 0 3 C-1.3303125 3.433125 -1.3303125 3.433125 -2.6875 3.875 C-5.50382424 4.83148748 -8.25083156 5.86798946 -11 7 C-11 6.34 -11 5.68 -11 5 C-9.54462432 4.16151196 -8.08559627 3.32936066 -6.625 2.5 C-5.81289063 2.0359375 -5.00078125 1.571875 -4.1640625 1.09375 C-2 0 -2 0 0 0 Z " fill="#0A143E" transform="translate(610,462)"/>
    <path d="M0 0 C0.33 0.66 0.66 1.32 1 2 C0.21625 2.45375 -0.5675 2.9075 -1.375 3.375 C-4.03698031 4.88428742 -4.03698031 4.88428742 -6 7 C-6.99 7 -7.98 7 -9 7 C-8 4 -8 4 -6.15234375 2.83203125 C-5.42144531 2.49558594 -4.69054687 2.15914063 -3.9375 1.8125 C-3.20402344 1.46832031 -2.47054688 1.12414062 -1.71484375 0.76953125 C-1.14894531 0.51558594 -0.58304687 0.26164062 0 0 Z " fill="#0C1B43" transform="translate(378,435)"/>
    <path d="M0 0 C0.66 0.33 1.32 0.66 2 1 C0.68 2.65 -0.64 4.3 -2 6 C-3.32 5.01 -4.64 4.02 -6 3 C-4.03533587 1.93224776 -2.03144641 0.93446535 0 0 Z " fill="#F4CD3A" transform="translate(207,218)"/>
    <path d="M0 0 C0 0.99 0 1.98 0 3 C-2.5 5.1875 -2.5 5.1875 -5 7 C-5 6.34 -5 5.68 -5 5 C-5.66 4.67 -6.32 4.34 -7 4 C-3.25 1 -3.25 1 -1 1 C-0.67 0.67 -0.34 0.34 0 0 Z " fill="#071A25" transform="translate(668,208)"/>
    <path d="M0 0 C2.475 0.495 2.475 0.495 5 1 C5.33 1.99 5.66 2.98 6 4 C6.66 4.33 7.32 4.66 8 5 C2.25 4.25 2.25 4.25 0 2 C0 1.34 0 0.68 0 0 Z " fill="#F2C83A" transform="translate(176,457)"/>
    <path d="M0 0 C0.66 0.33 1.32 0.66 2 1 C0.54550599 2.0055761 -0.91372443 3.00430435 -2.375 4 C-3.59316406 4.8353125 -3.59316406 4.8353125 -4.8359375 5.6875 C-7 7 -7 7 -9 7 C-8 4 -8 4 -6.22265625 2.796875 C-5.50980469 2.45140625 -4.79695313 2.1059375 -4.0625 1.75 C-3.35222656 1.39421875 -2.64195312 1.0384375 -1.91015625 0.671875 C-1.27980469 0.45015625 -0.64945312 0.2284375 0 0 Z " fill="#0B1845" transform="translate(402,422)"/>
    <path d="M0 0 C0 0.66 0 1.32 0 2 C-3.465 3.485 -3.465 3.485 -7 5 C-7.33 4.01 -7.66 3.02 -8 2 C-4.91190305 0.23537317 -3.76687864 0 0 0 Z " fill="#E6C138" transform="translate(380,253)"/>
    <path d="M0 0 C1.65 0 3.3 0 5 0 C5.33 0.99 5.66 1.98 6 3 C5.34 3.66 4.68 4.32 4 5 C1.875 4.625 1.875 4.625 0 4 C0 2.66666667 0 1.33333333 0 0 Z " fill="#2E9CD8" transform="translate(533,237)"/>
    <path d="M0 0 C0.66 0.33 1.32 0.66 2 1 C-1.465 3.97 -1.465 3.97 -5 7 C-5.66 5.68 -6.32 4.36 -7 3 C-6.34 2.67 -5.68 2.34 -5 2 C-5 2.66 -5 3.32 -5 4 C-3.35 2.68 -1.7 1.36 0 0 Z " fill="#E65B2E" transform="translate(607,177)"/>
    <path d="M0 0 C0.33 1.32 0.66 2.64 1 4 C0.01 4.495 0.01 4.495 -1 5 C-3.03144641 4.06553465 -5.03533587 3.06775224 -7 2 C-4.35261084 0.5393715 -3.10551666 0 0 0 Z " fill="#F7D136" transform="translate(388,677)"/>
    <path d="M0 0 C2.64 0.99 5.28 1.98 8 3 C8 3.33 8 3.66 8 4 C5.03 4 2.06 4 -1 4 C-0.67 2.68 -0.34 1.36 0 0 Z " fill="#15223D" transform="translate(335,659)"/>
    <path d="M0 0 C5.75 0.75 5.75 0.75 8 3 C5.21176345 4.0326802 4.1322726 4.04509293 1.25 3.0625 C0.5075 2.711875 -0.235 2.36125 -1 2 C-0.67 1.34 -0.34 0.68 0 0 Z " fill="#12223E" transform="translate(298,291)"/>
    <path d="M0 0 C0.66 0 1.32 0 2 0 C2 0.66 2 1.32 2 2 C4.97 2.99 7.94 3.98 11 5 C7.35839192 6.21386936 6.66834531 5.6674695 3.3125 4.0625 C2.10013672 3.49208984 2.10013672 3.49208984 0.86328125 2.91015625 C0.24839844 2.60980469 -0.36648437 2.30945313 -1 2 C-0.67 1.34 -0.34 0.68 0 0 Z " fill="#0C133D" transform="translate(184,245)"/>
    <path d="M0 0 C0.33 0.99 0.66 1.98 1 3 C0.01 3.66 -0.98 4.32 -2 5 C-2.66 4.67 -3.32 4.34 -4 4 C-4 3.34 -4 2.68 -4 2 C-4.66 1.34 -5.32 0.68 -6 0 C-2.25 -1.125 -2.25 -1.125 0 0 Z " fill="#CD5232" transform="translate(640,209)"/>
    <path d="M0 0 C3.63 0 7.26 0 11 0 C11 0.99 11 1.98 11 3 C9.35 3 7.7 3 6 3 C6 2.34 6 1.68 6 1 C4.02 1 2.04 1 0 1 C0 0.67 0 0.34 0 0 Z " fill="#081C27" transform="translate(680,106)"/>
    <path d="M0 0 C4.455 0.99 4.455 0.99 9 2 C9.33 1.34 9.66 0.68 10 0 C10.33 0.99 10.66 1.98 11 3 C7.19010598 4.46534385 4.6758821 3.55203911 1 2 C0.67 1.34 0.34 0.68 0 0 Z " fill="#F1CD39" transform="translate(356,667)"/>
    <path d="M0 0 C0.33 1.32 0.66 2.64 1 4 C1.66 4 2.32 4 3 4 C3 4.66 3 5.32 3 6 C0.69 5.34 -1.62 4.68 -4 4 C-3.67 3.34 -3.34 2.68 -3 2 C-2.01 2 -1.02 2 0 2 C0 1.34 0 0.68 0 0 Z " fill="#16213F" transform="translate(375,530)"/>
    <path d="M0 0 C1.65 0 3.3 0 5 0 C5.33 0.99 5.66 1.98 6 3 C6.66 3.66 7.32 4.32 8 5 C5.125 4.75 5.125 4.75 2 4 C0.625 1.9375 0.625 1.9375 0 0 Z " fill="#F6C937" transform="translate(267,426)"/>
    <path d="M0 0 C2 2 2 2 2.125 4.625 C2.08375 5.40875 2.0425 6.1925 2 7 C1.01 7.495 1.01 7.495 0 8 C-0.66 7.34 -1.32 6.68 -2 6 C-1.34 4.02 -0.68 2.04 0 0 Z " fill="#CD5633" transform="translate(557,214)"/>
</g>


  <!-- Title: Skald -->
  <text x="330" y="200" font-family="Arial, Helvetica, sans-serif" font-size="90" font-weight="bold" fill="url(#title-gradient)">
    Skald
  </text>
  <!-- Tagline 1: Modular Skald application framework -->
  <text x="330" y="290" font-family="Arial, Helvetica, sans-serif" font-size="48" font-weight="bold" fill="#222">
    <tspan fill="#00b894">Modular</tspan>
    <tspan dx="10" fill="#0984e3">event-driven</tspan>
    <tspan dx="10" fill="#222">task</tspan>
    <tspan dx="10" fill="#222">orchestration</tspan>
  </text>
  <!-- Tagline 2: Build, extend, and compose with Skald -->
  <text x="330" y="350" font-family="Arial, Helvetica, sans-serif" font-size="48" font-weight="bold" fill="#222">
    Build, dispatch, and scale
  </text>
  <text x="330" y="410" font-family="Arial, Helvetica, sans-serif" font-size="48" font-weight="bold" fill="#222">
    with
    <tspan dx="10" fill="#00b894">Skald</tspan>
  </text>
</svg>